<?xml version="1.0" encoding="UTF-8"?>
<svg xmlns="http://www.w3.org/2000/svg" xmlns:xlink="http://www.w3.org/1999/xlink" id="Color_Logo_Circle" data-name="Color Logo Circle" width="182.393" height="180.833" viewBox="0 0 182.393 180.833">
  <defs>
    <clipPath id="clip-path">
      <rect id="Rectangle_17" data-name="Rectangle 17" width="182.393" height="180.833" fill="none"></rect>
    </clipPath>
  </defs>
  <g id="Group_116" data-name="Group 116" clip-path="url(#clip-path)">
    <path id="Path_2948" data-name="Path 2948" d="M362.124,0l7.327.3a3.771,3.771,0,0,0-1.4.365,2.268,2.268,0,0,0-.816,1.319,3.633,3.633,0,0,0,.182,1.692q2.077,6.571,4.231,13.118c.11.334.478.583.726.872.279-.3.69-.543.815-.892,1.212-3.4,2.378-6.811,3.552-10.222a8.546,8.546,0,0,0,.278-.982c.4-1.879.256-3.595-1.482-4.809h7.184c-2.013.452-2.786,1.7-2.28,3.96.6,2.657,1.239,5.3,1.862,7.955.374,1.591.724,3.189,1.144,4.768.089.334.434.6.662.9.277-.252.679-.452.813-.765q2.34-5.5,4.6-11.029a10.475,10.475,0,0,0,.531-1.863c.379-1.847.1-2.511-1.2-3.37h5.524l.055.26a3.269,3.269,0,0,0-2.77,2.276c-1.431,3.05-2.78,6.139-4.129,9.227-1.253,2.87-2.44,5.77-3.716,8.629-.186.415-.71.68-1.078,1.014-.285-.374-.722-.709-.832-1.129-1.141-4.38-2.23-8.774-3.334-13.164a2.212,2.212,0,0,0-.2-.682c-.171-.257-.429-.632-.649-.631s-.565.345-.669.611c-.569,1.458-1.084,2.938-1.613,4.412-1.081,3.012-2.138,6.032-3.26,9.028-.162.432-.63.75-.956,1.121-.328-.388-.814-.724-.961-1.172-1.913-5.855-3.765-11.73-5.664-17.59-.449-1.383-.847-2.852-2.476-3.526" transform="translate(-282.734)" fill="#e8e2da"></path>
    <path id="Path_2949" data-name="Path 2949" d="M21.1,303.448a3.387,3.387,0,0,0-2.619-3.1c-4.955-1.472-9.911-2.942-14.882-4.357A3.159,3.159,0,0,0,0,297.244l.332-1.165c.121-.425.24-.851.365-1.274.657-2.217,1.288-4.442,1.981-6.648.819-2.607,2.552-4.058,4.766-4.076a4.8,4.8,0,0,1,5.027,4.475c.022.189.07.375.151.8.517-.8.871-1.436,1.31-2.009a5.52,5.52,0,0,1,5.869-1.956,5.048,5.048,0,0,1,4.35,3.943,7.116,7.116,0,0,1-.044,3.12c-.927,3.685-1.995,7.335-3.01,11m2.17-10.21a4.707,4.707,0,0,0-3.48-4.8A10.2,10.2,0,0,0,18,288.059a4.235,4.235,0,0,0-4.7,2.319,26.378,26.378,0,0,0-1.534,4.313,1.243,1.243,0,0,0,.6,1.059c2.536.778,5.088,1.519,7.664,2.151a2.031,2.031,0,0,0,2.595-1.576c.3-1,.437-2.056.646-3.086M6.983,286.626l-.112.234a10.45,10.45,0,0,0-1.211.15,4.91,4.91,0,0,0-3.424,4.777,1.912,1.912,0,0,0,1.054,1.3c2.219.758,4.484,1.382,6.739,2.034a.9.9,0,0,0,1.258-.686,25.943,25.943,0,0,0,.584-2.789A3.482,3.482,0,0,0,10.3,288a22.321,22.321,0,0,0-3.315-1.379" transform="translate(0 -221.801)" fill="#e8e2da"></path>
    <path id="Path_2950" data-name="Path 2950" d="M654.953,154.338l-4.4-5.755c1.725,1.2,3.195.506,4.619-.581q5.449-4.158,10.9-8.312c.19-.145.364-.309.551-.457a3.344,3.344,0,0,0,1.41-3.943l4.252,5.571c-1.781-1.029-3.178-.188-4.53.82-1.531,1.142-3.04,2.312-4.565,3.461a4.262,4.262,0,0,1-.62.328l.191.31c2.515.349,5.029.712,7.547,1.039a24.06,24.06,0,0,0,3.051.254c1.695,0,2.095-.48,1.941-2.262l3.245,4.252c-2.579-1.282-5.162-1.248-7.656-1.657-.941-.154-1.894-.227-2.836-.373a1.308,1.308,0,0,0-1.632,1.028c-1.127,4.349-2.284,8.693-3.281,13.073a18.076,18.076,0,0,0-.042,3.875l-4.633-6.056c.538.079,1.138.358,1.513.175a2.268,2.268,0,0,0,1.048-1.287c.978-3.4,1.891-6.819,2.77-10.247a1.128,1.128,0,0,0-.412-1c-.569-.187-1.407-.415-1.8-.142-1.977,1.39-3.879,2.9-5.741,4.439a3.106,3.106,0,0,0-.9,3.449" transform="translate(-507.932 -105.63)" fill="#e8e2da"></path>
    <path id="Path_2951" data-name="Path 2951" d="M60.52,175.326c-.2-7.116,4.977-10.64,9.522-11.422,4.122-.709,7.633.475,10.084,3.9,2.769,3.867,2.831,8.107.76,12.289-3.632,7.332-14,8.139-18.543,1.508a10.788,10.788,0,0,1-1.822-6.272m13.029,8.854c5.777.414,9.263-6.216,7.283-10.7s-5.578-6.862-10.195-7.811a7.883,7.883,0,0,0-9.374,6.305A5.51,5.51,0,0,0,61.244,174c.954,5.365,6.8,10.18,12.305,10.179" transform="translate(-47.247 -127.817)" fill="#e8e2da"></path>
    <path id="Path_2952" data-name="Path 2952" d="M154.566,103.59l-3.381-4.41.129-.128c.795.424,1.567.9,2.389,1.262a5.929,5.929,0,0,0,7.918-2.782c1.391-2.621-.684-6.035-3.806-6.2a16.939,16.939,0,0,0-6.28,1.2,5.332,5.332,0,0,1-7.066-4.121,6.046,6.046,0,0,1,3.385-6.788c.917-.438,1.921-.694,2.848-1.115a6.846,6.846,0,0,0,1.226-.964l3.191,3.934-.082.1c-.622-.387-1.228-.8-1.869-1.156a5.363,5.363,0,0,0-7.4,1.6,3.43,3.43,0,0,0-.52,3.65,3.366,3.366,0,0,0,3.158,2.076,14.034,14.034,0,0,0,3.206-.459c1.485-.341,2.924-.924,4.421-1.167a6,6,0,0,1,6.816,3.482,6.487,6.487,0,0,1-1.7,7.627,12.558,12.558,0,0,1-5.194,2.742c-.736.2-1.362.486-1.39,1.609" transform="translate(-112.696 -62.109)" fill="#e8e2da"></path>
    <path id="Path_2953" data-name="Path 2953" d="M751.984,305.5l-4.473,1.272-.082-.157c.529-.393,1.072-.771,1.587-1.182a5.389,5.389,0,0,0,1.219-7.621,3.356,3.356,0,0,0-5.837-.017,13.169,13.169,0,0,0-1.18,3.947c-.267,1.294-.2,2.663-.521,3.938-.842,3.344-3.142,5.166-6.247,5.131a6.413,6.413,0,0,1-6.264-5.319,37.756,37.756,0,0,1-.316-4.855c-.053-.722-.212-1.437-.342-2.275l4.815-1.259.1.169a6.279,6.279,0,0,0-.642.5,19.223,19.223,0,0,0-2.749,2.829,5.858,5.858,0,0,0,1.21,7.269,4.47,4.47,0,0,0,7-2.336,29.751,29.751,0,0,0,1.027-5.4c.354-2.747,1.884-4.595,4.323-5a6.1,6.1,0,0,1,6.591,3.4,10.692,10.692,0,0,1,.512,5.13,10.244,10.244,0,0,0,.264,1.836" transform="translate(-569.591 -230.357)" fill="#e8e2da"></path>
    <path id="Path_2954" data-name="Path 2954" d="M240.026,38.653l-6.321,2.462a3.532,3.532,0,0,0,.68-4.161q-3.013-7.759-5.994-15.529a1.043,1.043,0,0,0-1.624-.639c-.769.364-1.544.718-2.327,1.05-2.667,1.133-4.2,2.985-4.009,6.089-.343-1.1-.757-2.192-1.006-3.317a1.6,1.6,0,0,1,1.141-1.928q8.469-3.3,16.943-6.592a1.709,1.709,0,0,1,2.374.957c.492,1,.924,2.035,1.458,3.222-.212-.131-.293-.155-.332-.21a5.381,5.381,0,0,0-6.57-2.1q-1.511.469-3,1a1.017,1.017,0,0,0-.67,1.527c2.018,5.132,4.006,10.276,6.024,15.408.573,1.455,1.429,2.627,3.234,2.754" transform="translate(-171.284 -12.431)" fill="#e8e2da"></path>
    <path id="Path_2955" data-name="Path 2955" d="M609.375,79.168,606.194,84l-.188-.078c.144-.677.282-1.356.433-2.032,1.364-6.132-4.352-9.769-9.137-8.023-4.631,1.691-8.7,7.183-8.59,11.908.09,4.028,4.064,7.911,8.106,7.815a12.756,12.756,0,0,0,2.613-.566c-.99.958-2.955,1.327-5.111.791-5.092-1.267-10.466-7.641-6.818-14.687,2.146-4.145,5.385-6.914,10.313-6.814a11.06,11.06,0,0,1,8.663,4.147,16.476,16.476,0,0,0,1.265,1.6,11.651,11.651,0,0,0,1.63,1.106" transform="translate(-457.766 -56.457)" fill="#e8e2da"></path>
    <path id="Path_2956" data-name="Path 2956" d="M531.1,25.81l6.981,2.779c-1.871-.207-2.925.793-3.558,2.371Q531.79,37.775,529.1,44.61c-.6,1.545-.786,3.071.771,4.331l-6.588-2.612a3.51,3.51,0,0,0,3.244-2.454q2.774-6.964,5.538-13.932a3.226,3.226,0,0,0-.965-4.133" transform="translate(-408.563 -20.152)" fill="#e8e2da"></path>
    <path id="Path_2957" data-name="Path 2957" d="M40.237,516.268a2.778,2.778,0,0,1,.218.314c.728,1.762.728,1.763-.732,2.989l-4.743,3.984.077.26c2.1.055,4.192.094,6.287.169,1.948.069,2,.138,2.36,2.266l-9.814,3.418-.543-1.476,7.27-2.557c0-.072,0-.144,0-.216-.308-.03-.616-.076-.925-.088-1.942-.074-3.885-.109-5.823-.241-.312-.021-.669-.416-.872-.726a.759.759,0,0,1,.2-1.135c1.459-1.178,2.866-2.421,4.291-3.642a1.852,1.852,0,0,0,.632-.88l-7.16,2.458-.571-1.461,9.854-3.437" transform="translate(-23.722 -403.085)" fill="#e8e2da"></path>
    <path id="Path_2958" data-name="Path 2958" d="M567.337,739.735l-1.417.7-3.369-6.773-.151.013c0,.635-.037,1.272.008,1.9.11,1.564.221,3.13.408,4.685.077.636-.277.8-.7,1.049a.82.82,0,0,1-1.145-.159c-1.361-1.29-2.754-2.544-4.138-3.809a2.2,2.2,0,0,0-.961-.574l3.389,6.929-1.4.716-4.613-9.33c.062-.087.086-.157.135-.185,1.8-1.025,1.8-1.025,3.3.367s2.986,2.769,4.7,4.357c-.19-2.09-.354-3.9-.521-5.7-.025-.271-.073-.541-.09-.813-.13-1.961-.128-1.961,1.934-2.752l4.636,9.378" transform="translate(-431.951 -570.238)" fill="#e8e2da"></path>
    <path id="Path_2959" data-name="Path 2959" d="M689,646.5l-1.029,1.212-8.017-6.664a1.737,1.737,0,0,1,2.185-1.2c2.033.4,4.1.652,6.148.956a2.287,2.287,0,0,0,1.238-.112l-5.568-4.638,1.037-1.208,8.024,6.675a1.742,1.742,0,0,1-2.191,1.189c-2.026-.432-4.094-.664-6.146-.972a2.291,2.291,0,0,0-1.256.108L689,646.5" transform="translate(-530.883 -495.67)" fill="#e8e2da"></path>
    <path id="Path_2960" data-name="Path 2960" d="M180.774,704.215a1.692,1.692,0,0,1,1.378,2.04c-.2,2.1-.287,4.216-.412,6.324a2.467,2.467,0,0,0,.187,1.182l4.178-6.005,1.3.909-5.927,8.578a1.755,1.755,0,0,1-1.369-2.149,59.26,59.26,0,0,0,.243-7.447l-4.182,6.026-1.319-.881,5.927-8.577" transform="translate(-136.515 -549.827)" fill="#e8e2da"></path>
    <path id="Path_2961" data-name="Path 2961" d="M123.433,663.624l1.025-.931,2.7,2.888-4.127,3.891-.64-.9.455-.875c-2.494-.507-4.158-2.1-4.4-4.187a5.954,5.954,0,0,1,3.615-5.966,4.765,4.765,0,0,1,5.623,1.034,4.461,4.461,0,0,1,.925,5.392l-1.225-.544c.419-2.217-.023-3.443-1.548-4.378a3.755,3.755,0,0,0-.641-.311c-1.743-.652-4.366.935-5.113,3.087a3.665,3.665,0,0,0,2.265,4.368,2.38,2.38,0,0,0,2.65-.754l-1.57-1.815" transform="translate(-92.456 -513.003)" fill="#e8e2da"></path>
    <path id="Path_2962" data-name="Path 2962" d="M260.6,752.168c.006,3.286-2.324,6.012-5.153,6.029a4.766,4.766,0,0,1-5.061-4.858c0-3.238,2.4-6,5.211-6.005a4.8,4.8,0,0,1,5,4.835m-1.574.105a3.2,3.2,0,0,0-3.182-3.4c-2.025-.082-3.836,1.974-3.892,4.42a3.337,3.337,0,0,0,3.292,3.448c1.89.06,3.714-2.1,3.782-4.472" transform="translate(-195.493 -583.492)" fill="#e8e2da"></path>
    <path id="Path_2963" data-name="Path 2963" d="M735.311,584.263c-3.17-.01-6-2.534-6-5.354a4.9,4.9,0,0,1,4.857-4.989c3.188.048,5.991,2.565,5.988,5.377a4.824,4.824,0,0,1-4.849,4.967m-.022-1.571a3.313,3.313,0,0,0,3.382-3.245c.066-1.923-2.285-3.968-4.577-3.981a3.474,3.474,0,0,0-3.291,3.285c-.08,1.878,2.215,3.894,4.486,3.941" transform="translate(-569.425 -448.096)" fill="#e8e2da"></path>
    <path id="Path_2964" data-name="Path 2964" d="M767.328,508.752c-.095,1.043-.2,1.857-1.449,2.013-.971.121-1.9.558-2.872.682-1.171.15-1.4.854-1.408,1.89l4.155,1.224-.4,1.5-10.153-2.9c.434-1.414.76-2.734,1.245-3.992a2.557,2.557,0,0,1,2.821-1.876,2.947,2.947,0,0,1,2.856,2.329c.036.128.074.256.144.5l5.06-1.368m-7.227,4.165c.2-.857.4-1.537.523-2.231a1.405,1.405,0,0,0-1.163-1.742,1.335,1.335,0,0,0-1.7.924c-.28.677-.457,1.4-.706,2.182l3.041.866" transform="translate(-589.637 -396.069)" fill="#e8e2da"></path>
    <path id="Path_2965" data-name="Path 2965" d="M443.642,785.673c.939-3.589,1.813-6.984,2.736-10.365a.9.9,0,0,1,1.617-.222c1.689,3.109,3.333,6.243,5,9.385-1.628.372-1.683.4-2.309-1.028a1.217,1.217,0,0,0-1.568-.86,9.7,9.7,0,0,1-1.113.164c-1.959.2-2,.189-2.5,2.082-.286,1.072-1.1.6-1.858.844m2.676-4.206,3.168-.355-1.934-3.87-.239.064-.995,4.161" transform="translate(-346.381 -604.84)" fill="#e8e2da"></path>
    <path id="Path_2966" data-name="Path 2966" d="M641.706,709.572q-1.346-4.264-2.692-8.527a12.241,12.241,0,0,1-.492-1.661,1.04,1.04,0,0,1,.3-.825.984.984,0,0,1,.869-.183c3.112,1.747,6.2,3.536,9.306,5.324-1.072,1.263-1.108,1.313-2.337.46-.771-.536-1.374-.6-2.01.126a2.3,2.3,0,0,1-.554.452c-1.354.807-2.171,1.734-1.234,3.437.15.272-.535,1-.834,1.522l-.321-.124m-1.136-9.08-.174.151,1.375,4.1,2.5-2-3.7-2.25" transform="translate(-498.53 -545.233)" fill="#e8e2da"></path>
    <path id="Path_2967" data-name="Path 2967" d="M65.22,608.475l10.933-2.018c.691.573.786,1.078.174,1.858-2.081,2.653-4.077,5.373-6.207,8.2l-.912-1.412c.171-.245.317-.473.482-.686,1.072-1.381,1.074-1.38.119-2.908-.09-.144-.177-.291-.267-.436-.985-1.6-.985-1.6-2.811-1.265-.788.143-.792.14-1.513-1.335m9.178-.017-.12-.213-4.229.893,1.685,2.7,2.664-3.379" transform="translate(-50.922 -473.501)" fill="#e8e2da"></path>
    <path id="Path_2968" data-name="Path 2968" d="M329.925,767.756l1.523.318-1.741,8.857,4.5.962-.321,1.376-6.028-1.19,2.062-10.323" transform="translate(-255.984 -599.438)" fill="#e8e2da"></path>
    <path id="Path_2969" data-name="Path 2969" d="M397.485,787.319l-1.563-.1c.163-3.5.322-6.919.484-10.4h1.573c-.166,3.524-.327,6.947-.494,10.5" transform="translate(-309.122 -606.516)" fill="#e8e2da"></path>
    <path id="Path_2970" data-name="Path 2970" d="M783.144,235.917c.745.176,1.482.4,2.236.516.735.114,1.182-.081.932-1.013a1.292,1.292,0,1,1,2.524-.547,2.153,2.153,0,0,1-.666,1.557,3.824,3.824,0,0,1-5.026-.513" transform="translate(-611.453 -182.562)" fill="#e8e2da"></path>
    <path id="Path_2971" data-name="Path 2971" d="M347.116,433.577c0-8.847.039-17.693-.044-26.539a15.358,15.358,0,0,0-.447-3.288,6.228,6.228,0,0,0-1.887-3.237,11.985,11.985,0,0,1-.892-1.007h10.384c-.044.226-.255.278-.406.385a4.146,4.146,0,0,0-1.879,3.573q.006,8.612,0,17.224c0,1.388.592,1.941,1.988,1.853.563-.036,1.027.415,1.616.325a5.717,5.717,0,0,1-2.031.488c-1.123.034-1.571.473-1.571,1.609q0,8.88,0,17.76a.907.907,0,0,0,.239.8.519.519,0,0,1,.154.491,5.408,5.408,0,0,0,3.741,5.5,2.045,2.045,0,0,1,.244.117H343.55a8.549,8.549,0,0,0,2.018-1.984,5.859,5.859,0,0,0,1.164-4.184c-.054-.369.232-.6.281-.937a37.264,37.264,0,0,0,.1-4.544c.025-1.183-.007-2.367-.014-3.551q.006-.424.013-.848" transform="translate(-268.232 -311.921)" fill="#e8e2da"></path>
    <path id="Path_2972" data-name="Path 2972" d="M435.456,433.5a11.665,11.665,0,0,0-1.7-5.152c-1.685-3.018-4.48-4.377-7.713-5.084-1.264-.276-2.554-.311-3.821-.536-.159-.028-.432.059-.4-.212.032-.246.254-.04.386-.054a9.893,9.893,0,0,0,5.577-2.333,10.352,10.352,0,0,0,3.328-5.822,14.084,14.084,0,0,0-1.182-9.277A9.472,9.472,0,0,0,423.4,399.6a2.307,2.307,0,0,1-.646-.2c.775,0,1.552-.036,2.324.008a16.9,16.9,0,0,1,4.553.927A9.885,9.885,0,0,1,436.5,408.1a11.1,11.1,0,0,1-.181,5.225,6.318,6.318,0,0,1-.429,1.774,11.657,11.657,0,0,1-6.21,5.474c-1.2.422-2.38.884-3.572,1.32-.154.056-.326.1-.327.282,0,.234.222.245.384.277.631.124,1.271.2,1.9.3,1.195.2,2.378.483,3.55.792a12.4,12.4,0,0,1,6.242,3.51,14.148,14.148,0,0,1,3.109,5.692,15.119,15.119,0,0,1-.767,9.746,11.125,11.125,0,0,1-4.93,5.158,15.675,15.675,0,0,1-6.5,1.644c-.7.033-1.423.289-2.1.288a26.244,26.244,0,0,1-3.135-.091,28.071,28.071,0,0,0,4.61-1.108,10.683,10.683,0,0,0,7.3-8.005,14.956,14.956,0,0,0,.283-5.628c-.024-.16-.038-.31-.193-.4a.84.84,0,0,0-.085-.846" transform="translate(-329.344 -311.824)" fill="#e8e2da"></path>
    <path id="Path_2973" data-name="Path 2973" d="M262.084,487.079q0,3.645,0,7.29c0,.688-.461.978-1.125.731-.23-.086-.214-.26-.214-.434q0-4.659,0-9.319a.541.541,0,0,1,.071-.315c.267-.335,1.905-.058,2.064.343q1.288,3.263,2.574,6.526a1.2,1.2,0,0,0,.372.6c.584-1.469,1.159-2.915,1.735-4.359.355-.89.748-1.766,1.054-2.672a.715.715,0,0,1,.827-.56c1.349.014,1.353,0,1.353,1.372,0,2.7-.02,5.408.016,8.112.008.622-.207.738-.769.734-.539,0-.735-.13-.727-.707.032-2.361.013-4.723-.1-7.116-.49,1.2-.984,2.405-1.469,3.611-.374.93-.77,1.853-1.092,2.8-.172.507-.518.452-.9.462-.4.01-.692-.008-.875-.492-.781-2.062-1.618-4.1-2.437-6.15-.066-.163-.159-.316-.239-.474l-.119.011" transform="translate(-203.58 -378.58)" fill="#e8e2da"></path>
    <path id="Path_2974" data-name="Path 2974" d="M558.727,492.672c.936-2.361,1.877-4.6,2.694-6.876.286-.8.761-.8,1.417-.829.687-.034.861.175.852.856-.04,2.881-.03,5.764-.005,8.646,0,.545-.133.729-.7.73s-.664-.2-.66-.7c.021-2.451.01-4.9-.1-7.384q-.742,1.836-1.483,3.674c-.389.971-.818,1.93-1.137,2.924-.244.759-.869.491-1.331.589-.357.075-.377-.374-.476-.617-.867-2.139-1.717-4.285-2.7-6.409v2.41c0,1.631-.022,3.262.013,4.892.011.542-.212.625-.675.617-.436-.008-.7-.036-.691-.6q.039-4.49,0-8.981c0-.518.172-.638.658-.632,1.282.014,1.253,0,1.715,1.224.781,2.061,1.6,4.106,2.411,6.157a2.322,2.322,0,0,0,.21.315" transform="translate(-432.335 -378.643)" fill="#e8e2da"></path>
    <path id="Path_2975" data-name="Path 2975" d="M275.165,554.881q-.006.424-.013.848-11.6.006-23.2.015c-.317,0-.553-.011-.555-.45,0-.462.267-.422.567-.422q11.6.007,23.2.009" transform="translate(-196.281 -433.224)" fill="#be812c"></path>
    <path id="Path_2976" data-name="Path 2976" d="M416.526,554.922a.84.84,0,0,1,.085.846q-9.141,0-18.282-.013c-.227,0-.508.125-.678-.127a.478.478,0,0,1,.395-.732q9.24.009,18.481.026" transform="translate(-310.413 -433.244)" fill="#be812c"></path>
    <path id="Path_2977" data-name="Path 2977" d="M534.787,554.8c2.835,0,5.669,0,8.5.007.281,0,.689-.2.7.407.011.575-.353.452-.665.452q-8.537,0-17.076,0c-.263,0-.644.177-.665-.378-.018-.466.2-.492.563-.49,1.853.012,3.705.005,5.558.005h3.08" transform="translate(-410.359 -433.152)" fill="#be812c"></path>
    <path id="Path_2978" data-name="Path 2978" d="M231.3,248.409a24.063,24.063,0,0,1,2.761,1.293,3.022,3.022,0,0,1,1.86,2.87c0,.716.13.774.79.628a4.571,4.571,0,0,1,2.531-.095,1.859,1.859,0,0,1,1.016.875,10.9,10.9,0,0,1,1.206,3.21,6.672,6.672,0,0,0,1.826,3.42.767.767,0,0,0,.7.217,6.63,6.63,0,0,0,3.337-1.4,3.791,3.791,0,0,0,1.105-1.891,4.216,4.216,0,0,1,2.072-2.62,3.451,3.451,0,0,1,3.541.749c.158.178.16.226.016.434a6.28,6.28,0,0,1-4.415,3.033,4.426,4.426,0,0,0-2.063.791,10.4,10.4,0,0,1-3.189,1.533,5.645,5.645,0,0,0-.7.307,24.089,24.089,0,0,0,3.911,1.591,23.187,23.187,0,0,0,5.016,1.359,25.319,25.319,0,0,0,6.778-.023,2.6,2.6,0,0,0,1.922-1.55,7.929,7.929,0,0,1,4.955-4.12,6.862,6.862,0,0,1,1.881-.075c.668.007,1.337,0,2,0,.413,0,.584-.232.591-.676.013-.8.281-.984.981-.708a2.608,2.608,0,0,1,1.616,2.339,2.017,2.017,0,0,1-.85,1.506c-.39.344-.3.532.105.7a11.942,11.942,0,0,0,1.246.508c.407.118.826.369.859.734.039.425-.4.711-.771.9-.4.2-.851.264-1.254.487a2.086,2.086,0,0,0-.723.574c.131.214.245.434.388.629.458.625.464.627-.212.927a1.891,1.891,0,0,1-.566.16,18.786,18.786,0,0,1-9.149-1.213,7.986,7.986,0,0,0-4.272-.455c-1.261.189-2.538.254-3.807.383-.119.012-.316-.06-.337.145-.009.092.1.223.179.3.789.72,1.57,1.451,2.387,2.132.236.2.408.449.635.641a6.391,6.391,0,0,0,3.8,1.6,3.164,3.164,0,0,0,2.226-.791,2.765,2.765,0,0,1,3.674-.03c.283.193.665.459.614.816a.89.89,0,0,1-.864.693,6.991,6.991,0,0,1-3.087-.1,5.773,5.773,0,0,0-2.681-.087c-.346.056-.359.173-.127.416a8.32,8.32,0,0,0,2.282,1.52c2.172,1.139,4.266.575,6.28-.436a7.933,7.933,0,0,1,3.159-1.034,7.416,7.416,0,0,1,2.61.506c.594.2,1.121.422,1.246,1.208.052.322.314.49.679.572a4.215,4.215,0,0,0,2.087-.063,2.184,2.184,0,0,0,1.6-1.888c.138-.748.351-.806.845-.248a9.23,9.23,0,0,1,2.023,3.886c.18.705-.37,1.162-.849,1.509-.9.652-.943.881-.245,1.824a15.83,15.83,0,0,1,1.22,1.742c.243.44.137.6-.258.782-.794.376-1.67.424-2.47.766-.645.275-.646.266-.276.88a10.257,10.257,0,0,0,.913,1.372.8.8,0,0,1,.212.809c-.105.244-.39.073-.591.113-.247.049-.5.074-.742.137-.278.072-.227.336-.166.511a13.384,13.384,0,0,0,.426,1.3c.26.563.112.872-.441,1.086-.963.373-.963.377-.732,1.451.048.223.12.485-.1.634-.142.1-.338.237-.519.071-1.511-1.384-3.411-1.751-5.233-2.331a8.995,8.995,0,0,1-2.64-1.41c-.69-.514-.968-.4-1.35.406-.181.384-.2.838-.542,1.158-.481.457-.963.392-1.144-.266a8.02,8.02,0,0,1-.244-1.654c-.066-1.154-.087-2.311-.126-3.467a4.514,4.514,0,0,0-1.636-3.478,2.029,2.029,0,0,1-.836-1.779,3.862,3.862,0,0,0-2.482-4.152,31.582,31.582,0,0,1-6.016-4.251,29.157,29.157,0,0,0-4.182-3.349,14.2,14.2,0,0,0-2.755-1.013c-.085-.028-.205-.056-.255.068s.056.191.121.263c.451.5.88,1.026,1.362,1.489a12.628,12.628,0,0,1,2.6,3.954,1.614,1.614,0,0,0,.749.813,12.226,12.226,0,0,1,2.447,1.582,3.48,3.48,0,0,1,1.11,3.522,18.373,18.373,0,0,0-.517,2.911c-.042.5-.247.5-.565.422a.968.968,0,0,1-.375-.169,20,20,0,0,1-2.8-2.58,4.021,4.021,0,0,1-.74-3.841,4.946,4.946,0,0,0-.9-4.452,10.178,10.178,0,0,0-1.09-1.405c-.235-.24-.361-.25-.576.074a3.15,3.15,0,0,0-.347,3.048c.579,1.615.327,2.46-1.271,3.241-.841.411-1.043.269-1.354-.707a3.146,3.146,0,0,1,.429-2.637,7.3,7.3,0,0,1,.768-1.114,5.681,5.681,0,0,0,1.025-2.618c.041-.18-.073-.273-.141-.393a2.927,2.927,0,0,0-.928-1.048,20.383,20.383,0,0,0-5.566-2.9,4.978,4.978,0,0,0-.918-.185c-.248-.016-.547-.131-.708.255-.145.346.049.545.207.771a2.043,2.043,0,0,1,.5,1.162c.011.666-.18.945-.795,1.077-.462.1-.927.183-1.387.292-.706.167-.85.5-.52,1.166.349.7.7,1.4,1.038,2.1.207.437.055.689-.4.758a3.511,3.511,0,0,1-1.432-.27,3.715,3.715,0,0,0-2.551.36.6.6,0,0,0-.36.51,4.686,4.686,0,0,1-1.688,2.877c-.652.542-1.261,1.16-1.9,1.73-.532.474-1.028,1-1.578,1.443-.294.239-.646.291-.86-.2-.165-.374-.377-.724-.539-1.1-.173-.4-.4-.464-.721-.2a2.276,2.276,0,0,1-.236.181c-.844.518-.818.5-1.211-.442a2.669,2.669,0,0,0-2.372-1.711,4.724,4.724,0,0,1-1.507-.394,1.644,1.644,0,0,1-.9-1.967,9.018,9.018,0,0,1,1.338-3.326c.322-.482.084-.584-.266-.646-1.521-.27-3.034-.589-4.553-.861a15.191,15.191,0,0,0-2.594-.034c-.286,0-.65.076-.774-.261s.145-.614.363-.862a8.732,8.732,0,0,0,1.686-2.076c.061-.135.225-.26.118-.448-.125-.22-.288-.033-.419-.019a12.242,12.242,0,0,0-4.867,1.857c-.71.417-1.415.847-2.1,1.312a3.618,3.618,0,0,0-.774.765,1.718,1.718,0,0,0-.124,1.645,7.505,7.505,0,0,0,1.5,2.619,2.989,2.989,0,0,1,.349,3.3c-.242.4-.477.529-.852.281-.3-.2-.637-.272-.929-.491a1.908,1.908,0,0,1-.739-2.267,7.742,7.742,0,0,0,.393-1.746,3.439,3.439,0,0,0-.638-1.9c-.177-.309-.373-.2-.575.01a10.839,10.839,0,0,0-1.986,3.055,3.632,3.632,0,0,0,0,2.606,4.693,4.693,0,0,1-1.76,5.109A11.734,11.734,0,0,1,202,279.659c-.615.349-.722.3-.857-.4-.2-1.074-.427-2.148-.542-3.235a3.234,3.234,0,0,1,1.372-3c.8-.615,1.646-1.15,2.488-1.69a1.207,1.207,0,0,0,.489-.585,12.885,12.885,0,0,1,2.341-3.466,18.712,18.712,0,0,1,2.233-2.473c-.113-.174-.24-.161-.415-.132a10.307,10.307,0,0,0-5.113,2.7c-1.7,1.508-3.407,3-5.226,4.349-1.337.989-2.862,1.635-4.175,2.666a2.8,2.8,0,0,0-1.2,2.421,3.252,3.252,0,0,1-1.107,2.877c-1.259,1.076-1.463,2.591-1.489,4.174-.016.95.027,1.9-.035,2.85a2.533,2.533,0,0,1-.483,1.743.438.438,0,0,1-.733.022,2.821,2.821,0,0,1-.66-1.228c-.392-1.148-.8-1.236-1.623-.407a6.932,6.932,0,0,1-3.9,1.87,6.173,6.173,0,0,0-3.534,1.68c-.13.131-.255.312-.448.2a.508.508,0,0,1-.3-.5,1.293,1.293,0,0,1,.006-.315c.355-.936-.236-1.249-.869-1.527-.312-.137-.536-.252-.337-.713a6.6,6.6,0,0,0,.263-1.2c.2-.937.165-.992-.714-1.042-.228-.013-.57.129-.658-.084-.113-.272.112-.563.252-.839.264-.523.8-.793,1.012-1.366.158-.42.105-.633-.276-.844a9.3,9.3,0,0,0-1.592-.537c-.2-.069-.416-.1-.611-.183-.881-.379-.892-.406-.368-1.223.438-.682.91-1.339,1.345-2.024.173-.272.344-.543-.109-.805a7.056,7.056,0,0,1-1.026-.923,1.208,1.208,0,0,1-.328-1.508,8.281,8.281,0,0,1,1.524-2.771c.98-.951,1.3-.659,1.712.267.176.394.226.954.67,1.108a5.87,5.87,0,0,0,2.41.31c.8-.064.946-.726,1.193-1.3a.5.5,0,0,1,.378-.354,19.764,19.764,0,0,1,2.743-.715,3.749,3.749,0,0,1,2.257.437,33,33,0,0,0,3.72,1.518,4.65,4.65,0,0,0,3.775-.446,6.186,6.186,0,0,0,2.314-1.494c.084-.107.252-.184.183-.359s-.24-.169-.4-.188a8.616,8.616,0,0,0-3.191.317,4.456,4.456,0,0,1-3.035-.312c-.478-.229-.3-.57-.065-.82a2.749,2.749,0,0,1,3.427-.767,19.53,19.53,0,0,0,1.769.937c1.234.558,2.374.026,3.513-.417a6.487,6.487,0,0,0,1.927-1.479,31.714,31.714,0,0,0,2.5-2.252c.1-.116.308-.2.253-.387s-.262-.134-.416-.142c-1.162-.06-2.313-.278-3.47-.34a12.117,12.117,0,0,0-5.713.862,9.85,9.85,0,0,1-3.827.868c-.586.01-1.156.166-1.749.144-.954-.036-1.9-.136-2.844-.267a.8.8,0,0,1-.662-.453c-.131-.3.164-.438.316-.609.477-.534.451-.751-.2-1.08-.4-.2-.83-.331-1.228-.534-.359-.183-.885-.312-.891-.792-.006-.455.45-.682.835-.852s.79-.324,1.173-.513c.56-.276.559-.364.05-.752-1.066-.812-1-1.826-.287-2.861a1.727,1.727,0,0,1,1.5-.938.669.669,0,0,1,.649.863c-.146.512.108.534.444.533,1,0,2.008.021,3.012-.005a5.478,5.478,0,0,1,3.968,1.764,14.42,14.42,0,0,1,2.36,2.941,2.348,2.348,0,0,0,1.949,1.158c1.785.115,3.577.147,5.366.134a15.106,15.106,0,0,0,2.711-.617,59.826,59.826,0,0,0,7.392-2.4c.111-.037.379.035.346-.226-.024-.19-.21-.194-.374-.219a9.578,9.578,0,0,1-4.3-1.711,3.8,3.8,0,0,0-1.83-.687,6.327,6.327,0,0,1-4.363-2.891c-.1-.145-.144-.265.025-.416a3.163,3.163,0,0,1,3.816-.646,3.714,3.714,0,0,1,1.632,2.257A4.317,4.317,0,0,0,213,260.443a12.046,12.046,0,0,0,5,.479,5.788,5.788,0,0,0-1.929-1.8,3.854,3.854,0,0,1-2.125-2.534,7.934,7.934,0,0,1,.2-3.13,8.127,8.127,0,0,1,.872-2.348.886.886,0,0,1,1.172-.485,11.941,11.941,0,0,1,2.232,1.408c.684.391.676.443.942-.36a5.132,5.132,0,0,1,.705-1.55,1.816,1.816,0,0,1,1.555-.684,25.891,25.891,0,0,0,3.473-.365,5.4,5.4,0,0,1,2.885.546,1.178,1.178,0,0,0,1.514-.353,4.56,4.56,0,0,1,1.453-.861Zm2.667,8.138c.084-.183.165-.368.254-.548a15.25,15.25,0,0,0,1.146-3.112,1.814,1.814,0,0,0-.789-2.109c-.438-.283-.876-.565-1.323-.83a6.057,6.057,0,0,0-1.958-.851,1.2,1.2,0,0,0-1.365.52,4.637,4.637,0,0,0-.775,3.51,13.276,13.276,0,0,1,.279,1.655,8.049,8.049,0,0,0,.642,2.359c.064.144.078.377.277.348.18-.027.182-.258.219-.409.069-.284.106-.578.148-.869.086-.6.152-1.211.256-1.811.033-.19.093-.487.329-.447.205.035.127.314.129.49a7.765,7.765,0,0,1-.2,1.692,5.329,5.329,0,0,0-.176,1.311c.024.619.166.728.675.405.387-.246.725-.577,1.092-.86.2-.151.37-.39.741-.249-.456.594-.889,1.157-1.321,1.722-.073.1-.18.192-.128.328s.2.111.311.115a2.038,2.038,0,0,0,1.2-.218,17.753,17.753,0,0,0,2.615-1.709c.112-.1.214-.266.444-.146a1.454,1.454,0,0,1-.466.819,6.881,6.881,0,0,1-2.353,1.537,2.03,2.03,0,0,0-.926.75c-.159.225-.186.4.146.391.783-.013,1.552.177,2.34.147a23.04,23.04,0,0,1,3.948.1c.741.1,1.485.17,2.225.273.41.057.475-.085.343-.486-.437-1.332-.851-2.673-1.271-4.012a7.953,7.953,0,0,0-.88-2,1.82,1.82,0,0,0-1.179-.879,3.553,3.553,0,0,0-3.674,2.12,1.375,1.375,0,0,1-.98.947m-6.34,10.961a5.454,5.454,0,0,1,.175-2.912,6.075,6.075,0,0,0,.465-1.466.987.987,0,0,0-.453-.98c-.33-.176-.588.019-.787.336-.3.469-.678.866-.955,1.357-.779,1.382-1.6,2.737-2.374,4.12a9.215,9.215,0,0,0-1.081,2.29c-.268,1.091.056,1.715,1.074,2.007.3.086.606.155.908.235a4.23,4.23,0,0,1,2.681,1.517c.455.657.446.645.888-.024.685-1.035,1.4-2.048,2.08-3.086a1.33,1.33,0,0,0,.274-1.1c-.265-1.265-.433-2.553-.644-3.832-.088-.536-.175-1.072-.284-1.6-.068-.329-.174-.684-.542-.729-.4-.049-.421.374-.554.631-.083.16-.089.364-.159.535-.352.859-.433,1.8-.713,2.7M225.4,249.7c-1.14.1-2.624.167-4.088.388a1.5,1.5,0,0,0-1.36,1.725,14.914,14.914,0,0,0,.515,2.185,2.2,2.2,0,0,0,1.547,1.648,20.617,20.617,0,0,1,3.873,1.62,2.174,2.174,0,0,0,.715.258.67.67,0,0,0,.8-.361c.208-.376-.071-.552-.2-.749-.507-.761-1.051-1.493-1.585-2.233-.087-.121-.19-.26-.074-.388.145-.162.293-.043.4.088.349.426.7.849,1.033,1.291a14.037,14.037,0,0,1,1.392,2.254c.119.244.313.4.575.33a.369.369,0,0,0,.214-.4c-.177-1.024-.14-2.066-.246-3.092a26.131,26.131,0,0,1-.33-3.531c.007-.21.029-.466-.23-.51a10.512,10.512,0,0,0-2.946-.517m7.678,16.273-.179.082q-.84-1.362-1.681-2.723c-.122-.2-.206-.534-.518-.334-.264.17-.654.258-.575.759.245,1.558.4,3.133.8,4.661.377,1.452,1.129,1.925,2.477,1.478a15.766,15.766,0,0,1,5.681-.927c.4.017.45-.122.28-.474-.406-.844-.789-1.7-1.2-2.54a13.313,13.313,0,0,0-2.486-3.968,4.594,4.594,0,0,0-3.231-1.279.8.8,0,0,0-.8.529.7.7,0,0,0,.261.829c.6.576,1.2,1.156,1.8,1.734a.844.844,0,0,1,.376.629,6.621,6.621,0,0,1-2.019-1.061,7.127,7.127,0,0,1,1.017,2.6m-48.192,13.648a7.305,7.305,0,0,1,.689-.663c.816-.606,1.643-1.193,2.473-1.776a.75.75,0,0,0,.364-.718c-.038-.41-.364-.244-.555-.261a21.5,21.5,0,0,0-3.983.093,4.527,4.527,0,0,0-3.957,3.278,38.722,38.722,0,0,1-1.521,3.93c-.091.21-.225.418-.055.64s.389.119.6.071c.665-.154,1.333-.291,2-.453,2.162-.527,4.336-1.011,6.076-2.669A9.128,9.128,0,0,0,189,278.2a.757.757,0,0,0-.222-.8c-.232-.245-.327.117-.466.2-.387.244-.729.573-1.116.816a5.9,5.9,0,0,1-2.3,1.2m34.448-22.736c.214,0,.428,0,.642,0a21.242,21.242,0,0,1,3.461.585,2.712,2.712,0,0,0,1.815-.171c-.923-.33-1.682-.637-2.461-.873-1.033-.313-2.122-.553-2.661-1.685-.887-1.863-2.5-2.639-4.161-3.376-.362-.16-.514-.022-.656.315a9.425,9.425,0,0,0-.768,4.529,2.607,2.607,0,0,0,1.056,1.952c1.058.76,2.186,1.391,3.3,2.037a.6.6,0,0,0,.65,0,6.829,6.829,0,0,1,3.291-.765c1.16.011,2.321-.009,3.481-.017.247,0,.505.026.69-.238-1.4-1.211-3.121-1.2-4.753-1.486a6.656,6.656,0,0,1-2.929-.8m54.5,22.765a.8.8,0,0,1-.844-.1c-.225-.169-.461-.322-.69-.487q-.978-.708-1.953-1.421c-.208-.154-.41-.244-.65-.072-.277.2-.089.424-.012.612a9.974,9.974,0,0,0,.581,1.24,8.422,8.422,0,0,0,5.036,3.713,16.958,16.958,0,0,0,4.485.94c.123.005.264.135.368.006.084-.1-.01-.238-.053-.355-.6-1.627-1.18-3.262-1.8-4.878a3.415,3.415,0,0,0-2.16-2.086,11.664,11.664,0,0,0-5.009-.552,2.955,2.955,0,0,0-1.378.306c1.363,1.091,2.777,1.988,4.083,3.136m-57.7-14.528a29.072,29.072,0,0,1,6.2.9,2.1,2.1,0,0,0,2.58-1.094,13.994,13.994,0,0,0,1.56-2.9c.038-.143.122-.269.038-.411-.127-.214-.283-.026-.417-.007a4.433,4.433,0,0,1-1.161.206c.207-.4.58-.458.863-.653a.639.639,0,0,0,.365-.532c0-.274-.228-.318-.4-.392a6.616,6.616,0,0,0-1.723-.426,6.337,6.337,0,0,0-1.627.154,4.99,4.99,0,0,0-3.048,1.1,37.554,37.554,0,0,0-3.233,4.058m-36.181,23.721a4.1,4.1,0,0,0,.7-.067c.8-.219,1.609-.4,2.421-.561a6.431,6.431,0,0,0,4.826-3.176,4.629,4.629,0,0,0,.329-3.4c-.073-.325-.258-.514-.644-.22a14.225,14.225,0,0,1-5.252,2.632.754.754,0,0,0-.523.451c-.668,1.408-1.268,2.849-1.858,4.342m98.733.01c-.618-1.373-1.224-2.657-1.77-3.969a1.314,1.314,0,0,0-.917-.866,15.436,15.436,0,0,1-5.134-2.61c-.1-.072-.2-.128-.3-.2-.281-.2-.4-.066-.411.239-.013.442,0,.885,0,1.328a5.3,5.3,0,0,0,3.206,4.776,23.48,23.48,0,0,0,2.552.757,15.536,15.536,0,0,0,2.78.543M175.324,275.7a1.308,1.308,0,0,0,.226.256,7.391,7.391,0,0,0,.763.46c1.062.538,2.25.644,3.334,1.111a.546.546,0,0,0,.55-.109,8.64,8.64,0,0,1,3.744-1.67c.333-.047.414-.282.251-.646a1.156,1.156,0,0,0-1.134-.7c-.84-.042-1.667.145-2.511.143a3.109,3.109,0,0,1-2.911-1.657c-.226-.4-.389-.353-.667-.082a5.738,5.738,0,0,0-1.3,2.067c-.1.267-.221.529-.345.826m100.736-1.3a2.41,2.41,0,0,0-1.391.309.83.83,0,0,0-.367.752c.006.252.211.289.38.316a8.035,8.035,0,0,1,3.722,1.645.517.517,0,0,0,.6.1,9.831,9.831,0,0,1,1.978-.6,4.622,4.622,0,0,0,1.92-.92c.176-.155.3-.29.188-.582a8.231,8.231,0,0,0-1.5-2.626c-.308-.334-.464-.4-.707.092a2.672,2.672,0,0,1-2.643,1.646,9.848,9.848,0,0,1-2.182-.132m-74.746,1.652a6.413,6.413,0,0,0,.463,2.73c.124.356.364.41.591.208a9.6,9.6,0,0,0,2.222-2.262c.757-1.323,1.222-3.084.129-4.337-.254-.292-.4-.318-.669-.123-.435.314-.873.624-1.324.911a2.765,2.765,0,0,0-1.412,2.872m51.947-1.694a3.873,3.873,0,0,0,.787,2.46,5.264,5.264,0,0,0,1.337,1.416c1.388,1,1.283,1.369,1.723-.69.593-2.772-.1-3.928-2.253-5.037-.843-.435-1.508.063-1.591,1.091-.017.209,0,.422,0,.761m-61.811,1.033a10.676,10.676,0,0,0-1.972,3.056,9.25,9.25,0,0,0-.373,3.092,21,21,0,0,0,.132,4.96c.07.377.222.451.507.426.5-.044.514-.468.542-.851.1-1.318-.05-2.643.137-3.962a3.812,3.812,0,0,1,1.276-2.587,2.176,2.176,0,0,0,.967-2.128c-.047-.267-.119-.629-.406-.68-.309-.055-.378.312-.481.547-.16.363-.209.8-.64,1.068-.02-.976.354-1.832.313-2.942m75.9,3.087c-.271-.533-.541-1.067-.814-1.6-.078-.151-.163-.331-.332-.094a2.242,2.242,0,0,0,.283,2.309,4.427,4.427,0,0,1,1.6,2.716,13.073,13.073,0,0,1,.136,2.333c0,.675.009,1.352.052,2.025a.929.929,0,0,0,.65.881c.273.052.266-.444.384-.692a2,2,0,0,0,.122-.867c0-1.668-.016-3.337.023-5a5.545,5.545,0,0,0-2.009-4.364.188.188,0,0,0-.259-.03c-.037.807.223,1.573.167,2.385m-34.673-8.03c-1.038-.28-1.931.234-2.491,1.472a3.643,3.643,0,0,1-.368.492,2.539,2.539,0,0,0,.008,2.877c.2.295.365.417.7.155a27.247,27.247,0,0,0,2.711-2.228,6.207,6.207,0,0,0,1.428-2.142c.159-.405.133-.644-.351-.63s-.941,0-1.642,0m-42.152-9.11c-.307-.072-.577.105-.861.158a15.38,15.38,0,0,0-4.441,1.629c-.233.125-.287.283-.066.471a4.427,4.427,0,0,0,.524.4,14.3,14.3,0,0,0,2,.652.71.71,0,0,0,.8-.128,7.148,7.148,0,0,1,4.332-1.527c.2,0,.552-.076.51-.162-.117-.238.014-.554-.323-.748a6.8,6.8,0,0,0-2.469-.742m1.856,3.5,2.752-.965a5.034,5.034,0,0,0-3.422-.285,7.7,7.7,0,0,0-3.741,2.072c-.128.122-.371.2-.322.393.038.157.266.2.436.245,2.28.66,4.447.053,6.6-.681a.533.533,0,0,0,.329-.6c-.052-.306-.322-.236-.531-.249a10.2,10.2,0,0,1-2.1.068m-3.2,8.735a3.362,3.362,0,0,0-1.5-1.17,5.214,5.214,0,0,0-3.828.127c-.826.29-.895.684-.241,1.323a1.477,1.477,0,0,0,.188.152,8.023,8.023,0,0,0,5.881,1.355,1.22,1.22,0,0,0,.872-.332c-.788-.512-1.736-.572-2.527-1.206l1.154-.248m78.886-12.131a6.055,6.055,0,0,0-2.184.471,1.162,1.162,0,0,0-.565.521c-.261.418-.2.578.294.565a6.269,6.269,0,0,1,3.8,1.083,2.428,2.428,0,0,0,2.6.272,4.173,4.173,0,0,0,1.263-.645c.215-.2.317-.392-.019-.571a13.145,13.145,0,0,0-5.187-1.7m4.346,10.663a3.7,3.7,0,0,0-2.634,1.064c-.11.1-.323.182-.25.377s.274.111.42.1c.209-.021.473.055.5.2.046.238-.242.276-.409.364a1.864,1.864,0,0,1-.392.132,3,3,0,0,0-1.085.466c-.106.081-.244.177-.209.347.031.15.182.137.291.166.152.041.305.073.459.1a7.684,7.684,0,0,0,5.4-1.26,1.9,1.9,0,0,0,.758-.857c.151-.311.113-.509-.217-.622a8.175,8.175,0,0,0-2.636-.579m-6.391-7.279a1.057,1.057,0,0,1-.941.121,3.758,3.758,0,0,0-1.1-.194c-.209.014-.51-.094-.6.122-.109.267.228.331.37.477a1.6,1.6,0,0,0,.632.453,10.4,10.4,0,0,0,5.778.585c.269-.068.691-.051.749-.358.051-.269-.342-.415-.558-.581a15.629,15.629,0,0,0-1.379-.968,6.641,6.641,0,0,0-5.007-.856c-.125.026-.311,0-.309.2,0,.148.16.155.27.2.7.266,1.4.535,2.094.8m-26.761.327a3.1,3.1,0,0,0,1.841-.518c.25-.134.291-.295.139-.553-.294-.5-.557-1.018-.851-1.517-1.007-1.707-2.011-2.068-3.8-1.432-.414.147-.426.311-.2.657.589.9,1.185,1.788,1.725,2.718.3.509.637.772,1.147.645M175.5,280.95c.974.19,1.879.374,2.787.538.2.037.4.052.5-.266.249-.8.532-1.583.824-2.364a.61.61,0,0,0-.013-.593,1.734,1.734,0,0,0-2.295-.012,19.727,19.727,0,0,0-1.8,2.7m104.9.578c.786-.174,1.572-.352,2.359-.52.371-.079.2-.266.083-.434-.48-.718-.944-1.45-1.453-2.145a1.592,1.592,0,0,0-2.287-.217.285.285,0,0,0-.1.274,6.162,6.162,0,0,0,.9,2.767c.127.172.262.319.5.275m-89.124-22.095a5.14,5.14,0,0,0-2.331.513c-.164.073-.52.211-.25.423a1.987,1.987,0,0,0,1.26.585,8.049,8.049,0,0,1,4.188.956c.289.152.739.2.936-.053.173-.224-.157-.553-.288-.824a.957.957,0,0,0-.2-.234,5.011,5.011,0,0,0-3.319-1.366m76.2,0a5.194,5.194,0,0,0-3.656,1.6c-.216.223-.435.469-.221.822s.485.21.768.07a7.87,7.87,0,0,1,4.034-.949,2.249,2.249,0,0,0,1.492-.631c.255-.183.149-.306-.063-.378a8.611,8.611,0,0,0-2.354-.532m-58.593-1c.338.017.8-.363.664-.731a3.793,3.793,0,0,0-1.125-1.9,3,3,0,0,0-2.779-.182c-.257.07-.238.221-.13.418a4.15,4.15,0,0,0,3.37,2.4m42.481-2.937c-1.127-.016-1.659.476-2.107,1.949-.212.7.034,1.113.707.981a4.6,4.6,0,0,0,3.146-2.221c.136-.226.1-.384-.182-.447a7.38,7.38,0,0,0-1.565-.262m-70.733,29.578c-.109-.128.2-.59-.277-.458a1.716,1.716,0,0,0-1.36,1.222c-.114.419-.264.826-.4,1.238-.051.154-.174.329-.022.458.124.106.285.015.439-.031,1.294-.387,1.463-1.2,1.621-2.429m99.438,2.311c-.178-.508-.354-1.013-.533-1.517-.042-.117-.091-.232-.143-.344a1.486,1.486,0,0,0-.585-.762.718.718,0,0,0-.828.075c-.294.22-.151.476-.057.726.117.311.228.625.367.925a1.353,1.353,0,0,0,1.779.9m-32.119-15.106c.014.073.07.318.111.565.057.349.2.442.53.309a1.416,1.416,0,0,0,.855-2.131c-.1-.23-.218-.448-.307-.681-.113-.3-.26-.266-.438-.08a2.5,2.5,0,0,0-.751,2.019m-60.678-11.316h.235c.42,0,.639-.078.336-.592a10.428,10.428,0,0,1-.738-1.548c-.16-.416-.36-.422-.661-.213a1.268,1.268,0,0,0-.468,1.436,1.167,1.167,0,0,0,1.3.917m84,0v0c.1,0,.2.008.294,0a1.345,1.345,0,0,0,1.042-1.137,1.148,1.148,0,0,0-.607-1.251c-.255-.123-.564-.149-.619.211a4.9,4.9,0,0,1-.729,1.639c-.2.371-.044.488.265.532a2.5,2.5,0,0,0,.353,0M210.5,272.225a1.736,1.736,0,0,0-.616-1.729c-.154-.133-.283-.216-.459-.05a1.45,1.45,0,0,0,.064,2.247c.26.208.521.648.877.462.314-.164.071-.62.134-.93m-16.988-1.493c.326-.12.941.014.956-.485.014-.464-.581-.484-.959-.527-.419-.048-.971.16-.989.518-.016.328.557.457.991.5m72.566-.721h-2c.958.669,1.406.658,2,0" transform="translate(-136.515 -193.949)" fill="#be812c"></path>
    <path id="Path_2979" data-name="Path 2979" d="M427,258.876a1.375,1.375,0,0,0,.98-.947,3.553,3.553,0,0,1,3.675-2.12,1.82,1.82,0,0,1,1.179.879,7.944,7.944,0,0,1,.88,2c.42,1.339.834,2.68,1.271,4.012.132.4.067.543-.343.486-.74-.1-1.484-.173-2.225-.273a23.042,23.042,0,0,0-3.948-.1c-.788.029-1.557-.16-2.34-.148-.332.005-.305-.166-.146-.39a2.027,2.027,0,0,1,.926-.75,6.886,6.886,0,0,0,2.353-1.537,1.451,1.451,0,0,0,.466-.819c-.229-.12-.332.047-.444.146a17.736,17.736,0,0,1-2.615,1.709,2.04,2.04,0,0,1-1.2.218c-.114,0-.256.028-.311-.115s.055-.233.128-.328c.432-.564.865-1.127,1.321-1.722-.371-.141-.544.1-.741.249-.367.283-.706.614-1.092.86-.508.323-.65.213-.675-.405a5.322,5.322,0,0,1,.177-1.311,7.769,7.769,0,0,0,.2-1.692c0-.176.076-.455-.129-.49-.236-.04-.3.257-.329.447-.1.6-.17,1.207-.256,1.811-.041.291-.079.585-.148.869-.037.151-.038.382-.219.409-.2.029-.213-.2-.277-.348a8.05,8.05,0,0,1-.642-2.359,13.273,13.273,0,0,0-.279-1.655,4.637,4.637,0,0,1,.775-3.51,1.2,1.2,0,0,1,1.365-.52,6.054,6.054,0,0,1,1.958.851c.447.266.885.548,1.323.831a1.813,1.813,0,0,1,.789,2.109,15.238,15.238,0,0,1-1.146,3.112c-.089.18-.169.365-.254.548" transform="translate(-329.554 -196.279)" fill="#e8e2da"></path>
    <path id="Path_2980" data-name="Path 2980" d="M397.426,316.2c.279-.9.361-1.839.713-2.7.07-.171.076-.375.159-.535.133-.258.159-.68.555-.631.367.045.474.4.541.729.109.53.2,1.067.284,1.6.211,1.278.379,2.567.644,3.832a1.329,1.329,0,0,1-.274,1.095c-.681,1.038-1.395,2.051-2.08,3.086-.443.668-.434.681-.888.024a4.231,4.231,0,0,0-2.681-1.518c-.3-.08-.607-.149-.908-.235-1.018-.292-1.341-.917-1.074-2.007a9.22,9.22,0,0,1,1.081-2.29c.777-1.383,1.6-2.739,2.374-4.12.277-.491.659-.888.955-1.358.2-.316.457-.512.787-.336a.987.987,0,0,1,.453.98,6.078,6.078,0,0,1-.465,1.466,5.456,5.456,0,0,0-.176,2.912" transform="translate(-306.315 -242.646)" fill="#e8e2da"></path>
    <path id="Path_2981" data-name="Path 2981" d="M386.016,254.274a10.512,10.512,0,0,1,2.946.517c.259.044.236.3.23.51a26.157,26.157,0,0,0,.33,3.531c.107,1.026.07,2.068.246,3.092a.369.369,0,0,1-.214.4c-.262.075-.456-.085-.575-.33a14.027,14.027,0,0,0-1.392-2.254c-.331-.442-.684-.865-1.033-1.291-.107-.131-.255-.249-.4-.088-.116.129-.014.267.074.388.533.74,1.078,1.472,1.585,2.233.132.2.41.373.2.749a.67.67,0,0,1-.8.361,2.185,2.185,0,0,1-.715-.258,20.613,20.613,0,0,0-3.873-1.62,2.2,2.2,0,0,1-1.547-1.648,14.891,14.891,0,0,1-.515-2.185,1.5,1.5,0,0,1,1.36-1.725c1.464-.221,2.949-.287,4.089-.388" transform="translate(-297.126 -198.522)" fill="#e8e2da"></path>
    <path id="Path_2982" data-name="Path 2982" d="M429.924,309.786a7.13,7.13,0,0,0-1.017-2.6,6.623,6.623,0,0,0,2.019,1.06.843.843,0,0,0-.376-.629c-.6-.578-1.2-1.158-1.8-1.734a.7.7,0,0,1-.261-.829.794.794,0,0,1,.8-.529,4.592,4.592,0,0,1,3.231,1.279,13.313,13.313,0,0,1,2.486,3.968c.411.84.795,1.7,1.2,2.54.169.352.115.491-.28.474a15.764,15.764,0,0,0-5.681.927c-1.347.447-2.1-.026-2.477-1.478-.4-1.529-.553-3.1-.8-4.661-.079-.5.311-.589.575-.759.311-.2.4.137.517.334q.844,1.359,1.681,2.723l.179-.082" transform="translate(-333.357 -237.761)" fill="#e8e2da"></path>
    <path id="Path_2983" data-name="Path 2983" d="M360.612,267.182a6.648,6.648,0,0,0,2.929.8c1.633.286,3.35.276,4.754,1.486-.184.264-.443.236-.69.238-1.16.008-2.321.029-3.481.017a6.834,6.834,0,0,0-3.291.764.6.6,0,0,1-.65,0c-1.119-.646-2.246-1.277-3.3-2.037a2.607,2.607,0,0,1-1.056-1.952,9.425,9.425,0,0,1,.768-4.53c.142-.337.294-.475.656-.315,1.663.737,3.274,1.512,4.161,3.376.539,1.132,1.628,1.372,2.661,1.685.778.235,1.538.542,2.461.873a2.715,2.715,0,0,1-1.815.171,21.213,21.213,0,0,0-3.461-.585c-.214,0-.428,0-.642,0" transform="translate(-277.788 -204.245)" fill="#e8e2da"></path>
    <path id="Path_2984" data-name="Path 2984" d="M363.215,305.676a37.5,37.5,0,0,1,3.233-4.058,4.989,4.989,0,0,1,3.048-1.1,6.339,6.339,0,0,1,1.627-.154,6.609,6.609,0,0,1,1.723.426c.173.074.4.118.4.392a.638.638,0,0,1-.365.532c-.283.195-.656.248-.863.653a4.44,4.44,0,0,0,1.161-.206c.134-.018.29-.207.416.007.083.141,0,.268-.038.411a13.984,13.984,0,0,1-1.56,2.9,2.1,2.1,0,0,1-2.579,1.094,29.085,29.085,0,0,0-6.2-.9" transform="translate(-283.586 -234.502)" fill="#e8e2da"></path>
    <path id="Path_2985" data-name="Path 2985" d="M426.886,348.661c.7,0,1.171.011,1.642,0s.51.225.351.63a6.207,6.207,0,0,1-1.428,2.142,27.28,27.28,0,0,1-2.711,2.228c-.34.261-.5.139-.705-.155a2.539,2.539,0,0,1-.008-2.878,3.6,3.6,0,0,0,.368-.492c.56-1.238,1.453-1.752,2.491-1.472" transform="translate(-330.72 -272.164)" fill="#e8e2da"></path>
    <path id="Path_2986" data-name="Path 2986" d="M457.938,309.392c-.511.127-.852-.136-1.147-.645-.539-.93-1.135-1.823-1.725-2.718-.228-.346-.216-.51.2-.657,1.792-.636,2.8-.274,3.8,1.432.294.5.557,1.018.851,1.517.152.258.111.42-.139.553a3.1,3.1,0,0,1-1.841.518" transform="translate(-355.185 -238.195)" fill="#e8e2da"></path>
  </g>
</svg>
