<?xml version="1.0" encoding="UTF-8"?>
<svg xmlns="http://www.w3.org/2000/svg" xmlns:xlink="http://www.w3.org/1999/xlink" width="2358.33" height="739.447" viewBox="0 0 2358.33 739.447">
  <defs>
    <clipPath id="clip-path">
      <rect id="Rectangle_9" data-name="Rectangle 9" width="698.244" height="250.411" fill="#fcfaf7"></rect>
    </clipPath>
    <clipPath id="clip-path-2">
      <rect id="Rectangle_10" data-name="Rectangle 10" width="745.212" height="267.255" fill="#fcfaf7"></rect>
    </clipPath>
  </defs>
  <g id="floral_sides" data-name="floral sides" transform="translate(2558.33 924.255) rotate(180)">
    <g id="Group_111" data-name="Group 111" transform="translate(1860.086 673.844)" clip-path="url(#clip-path)">
      <path id="Path_2942" data-name="Path 2942" d="M674.638,30.432c3.695.463,6.873.86,11.17,1.4-1.758,2.778-2.851,5.128-4.492,7-7.976,9.069-7.387,10.855,4.369,13.737,4.041.989,7.928,2.627,12.556,4.2-4.36,6.187-7.916,11.482-11.749,16.569-1.843,2.444-1.761,4.089.743,5.881,2.347,1.679,4.514,3.616,6.728,5.475a6.147,6.147,0,0,1,1.893,7.532,162.521,162.521,0,0,1-8.445,15.5c-.983,1.619-2.876,2.8-4.564,3.852-3.1,1.925-4.927,1.291-6.691-1.981-.12-.22-.2-.469-.331-.677-1.739-2.652-2.892-6.448-5.349-7.721-5.572-2.885-12-2.923-18.034-1.232-1.651.46-3.027,3.153-3.818,5.109-1.055,2.614-2.454,4-5.349,4.454-6.3.989-12.5,2.791-18.827,3.4-3.339.324-7-.753-10.263-1.9-7.346-2.577-14.54-5.591-21.792-8.436a28.871,28.871,0,0,0-19.59-1c-7.963,2.466-15.693,5.449-22.031,11.132a30.861,30.861,0,0,0-2.551,3.078,37.645,37.645,0,0,0,20.04.095c6.694-1.855,13.4-2.416,20.078-.271,1.748.561,3.194,2.06,4.779,3.128-1.112,1.531-1.969,3.37-3.38,4.539-6.133,5.087-12.934,5.67-20.122,2.381-1.14-.523-2.258-1.106-3.358-1.714-12.921-7.122-27.058-5.506-38.285,4.183-6.1,5.264-12.383,10.31-18.629,15.4A46.394,46.394,0,0,1,505.3,146.2c.3.567.6,1.131.891,1.7,3.764.406,7.522,1.008,11.3,1.181,11.031.5,22.078,1.2,33.106,1.04,4.375-.063,8.833-1.868,13.057-3.411a118.927,118.927,0,0,1,56.117-6.117c2.287.284,4.429,1.71,7.235,2.851-1.739,1.962-2.788,3.15-3.84,4.338-2.123,2.4-1.94,4.054.992,5.512,3.03,1.509,6.309,2.523,9.33,4.051a55.417,55.417,0,0,1,5.976,4.057c-4.145,6.432-11.891,5.679-17.791,11.173a19.234,19.234,0,0,1,3.745,2.066c7.78,7.009,5.289,18.081-4.766,21.436-4.671,1.556-6.779.2-6.722-4.681.031-2.479-.841-3.449-3.263-3.358-4.394.167-8.807.041-13.186.384-15.986,1.254-28.268-5.575-38.25-17.372-2.759-3.257-5.175-6.807-7.733-10.234-3.982-5.33-9.233-7.793-15.948-7.736-7.3.06-14.6-.214-21.892-.564-14.884-.712-28.829,3.78-42.818,7.765-10.263,2.923-20.32,6.574-30.46,9.929-1.213.4-2.366.976-3.547,1.468.05.315.1.63.154.945,2.627.583,5.248,1.191,7.881,1.745a69.436,69.436,0,0,1,22.828,9.566,22.882,22.882,0,0,0,9.418,3.289c13.318,1.44,22.519,9.047,30.432,18.979-9.768,8.738-20.944,9.768-28.687,2.23a27.475,27.475,0,0,1-6.587-10.282c-2.728-7.862-7.45-13.535-14.918-17.079-10.089-4.785-24.753-6.565-37.293-4.07,2.86,2.627,5.078,5.056,7.68,6.968,3.44,2.529,7.217,4.59,10.776,6.968,6.429,4.3,9.22,10.367,8.732,18.071-.58,9.148-2.356,17.908-7.242,25.868-1.792,2.92-4.048,4.256-7.191,2.781-3.509-1.644-6.854-3.641-10.218-5.579-2.687-1.547-5.3-3.232-8.382-5.131-1.323,3.282-2.488,6.007-3.531,8.779-2.136,5.676-6.1,8.546-12.244,8.924-7.012.432-14,1.953-20.985,1.849a86.574,86.574,0,0,1-20-2.81c-3.868-.989-6.876-1.014-9.589,1.7-6.363,6.379-13.211,6.218-20.635,2.082-4.057-2.259-8.4-4.016-12.43-6.316a16.091,16.091,0,0,1-8.581-14.934c.028-3.4-.879-4.671-4.681-3.834a67.7,67.7,0,0,1-12.7,1.162c-5.39.151-9.151-2.857-11.321-7.447a114.97,114.97,0,0,1-6.2-15.731c-2.429-8.042-5.283-15.687-11.564-21.672-1.748-1.666-3.323-2.523-5.654-1.773-5.008,1.606-10.162,2.851-15.01,4.842-6.587,2.706-10.83,7.554-13.233,14.547-1.5,4.363-4.435,8.448-7.475,12.02-4.057,4.763-9.771,6.165-15.826,4.741a61.5,61.5,0,0,1-10.912-3.909c-1.984-.888-2.366-2.485-.731-4.558,7.654-9.715,17.152-16.018,29.736-17.448,3.267-.375,6.464-1.931,9.541-3.282,8.026-3.525,15.97-7.236,23.949-10.871.661-.306,1.329-.6,2.6-1.178a16.329,16.329,0,0,0-2.611-1.814c-27.15-10.93-54.835-19.35-84.612-17.6a129.771,129.771,0,0,0-13.873,1.559c-5.361.895-9.1,3.83-11.973,8.744-7.888,13.482-18.884,23.357-35.006,25.427-6.3.81-12.8-.06-19.215-.094-5.175-.025-5.7.422-6.322,5.648-.312,2.589-1.692,3.474-4.111,3.163-5.012-.639-10.442-5.531-11.771-10.562-.973-3.695-.469-7.024,2.511-9.633,1.6-1.4,3.389-2.6,5.09-3.887-.151-.57-.3-1.137-.454-1.707-2.356-1.159-4.687-2.385-7.081-3.462-2.167-.973-4.564-1.518-6.58-2.725-3.292-1.969-3.238-4.057-.091-6.347a14.214,14.214,0,0,1,3-1.553c1.4-.564,2.844-1,4.275-1.487,8.719-2.933,8.914-3.5,3.657-10.688a10.3,10.3,0,0,1-.6-1.115c4.019-3.525,9.034-3.465,13.832-3.767,16-1,31.846.51,46.806,6.281,13.2,5.1,26.479,5.235,40.112,3.645,6.442-.75,12.909-1.276,20.195-1.984a26.7,26.7,0,0,0-2.369-2.772c-7.418-6.243-14.531-12.918-22.4-18.541-8.133-5.815-17.388-9.277-27.7-6.687a27.484,27.484,0,0,0-8.108,3.846c-8.448,5.535-16.077,5.541-24.034-.52-1.269-.967-3.068-3.21-2.715-3.925a7.764,7.764,0,0,1,4.293-3.638,33.89,33.89,0,0,1,20.062.246c6.527,1.991,13.072,1.581,20.3-.028a25.858,25.858,0,0,0-2.41-2.866c-8.269-7.094-18.034-11.586-28.659-12.357-6.366-.463-13.009,2.224-19.451,3.811a32.656,32.656,0,0,0-7.979,3.323c-10.653,5.972-21.656,6.52-33.188,2.958-4.823-1.487-9.274-2.866-10.48-8.662-.189-.913-1.638-1.975-2.684-2.233a26.946,26.946,0,0,0-17.023,1.062c-5.919,2.444-7.982,7.651-9,14.206-1.578-.942-2.983-1.433-3.906-2.388a52.644,52.644,0,0,1-12.7-21.581c-1.194-3.944.643-7.157,5.364-10.1,5.8-3.619,5.963-4.073,1.994-9.935-2.536-3.745-5.352-7.3-8.08-10.915-1.893-2.507-1.137-4.23,1.619-5.122,3.456-1.121,7-1.959,10.471-3.043,2.911-.91,5.764-2,9.173-3.194-2.252-3.481-3.991-6.215-5.774-8.921-1.641-2.492-3.333-4.955-5.478-8.136,4.6-.5,7.925-.86,11.885-1.291-1.169-3.742-2.085-7.22-3.348-10.568-1.314-3.481-.236-5.4,3.181-6.615,5.547-1.981,5.5-2.082,4.545-7.793a13.687,13.687,0,0,1-.246-2.627C27.16.176,28.933-.873,31.041.819c7.875,6.325,17.123,9.349,26.753,11.567,8.833,2.035,16.742,6.064,24.2,11.119,3.708,2.511,5.1,2.148,7.327-1.855.97-1.745,1.282-3.931,2.479-5.459,1.449-1.852,3.519-3.219,5.32-4.794,1.317,2,3.544,3.893,3.793,6.02a163.192,163.192,0,0,1,1.477,22.935c-.258,10.745,2.372,19.82,11.267,26.573,3.909,2.97,5.257,7.28,4.8,12.09-.936,9.809,3.648,16.673,12.055,20.724,20.28,9.771,37.838,23.4,54.958,37.708,9.661,8.067,20.308,13.926,33.012,15.441.444.054.9.006,2.29.006-2.8-2.889-4.876-5.386-7.311-7.465-8.669-7.418-15.032-16.484-20.154-26.6a16.6,16.6,0,0,0-5.541-5.689c-4.668-3.166-9.9-5.544-14.38-8.933-7.456-5.642-9.841-13.192-7.365-22.428,1.584-5.916,2.416-12.033,3.733-18.809,2.073.806,4.275,1.147,5.79,2.35,5.219,4.145,10.354,8.426,15.233,12.962,6.87,6.379,9.68,14.717,6.694,23.382-5.824,16.922,4.684,26.888,13.879,37.8,5.286-3.339,7.821-11.192,5.979-17.659-.586-2.051-1.427-4.029-1.994-6.086-1.707-6.19-.233-10.219,5.207-13.491,2.674-1.606,5.62-2.759,8.5-4.145,4.593,5.437,5.72,11.258,2.8,17.388a53.065,53.065,0,0,1-6.713,10.408,31.636,31.636,0,0,0-6.476,15.444,4.862,4.862,0,0,0,1.14,3.682c2.832,2.822,5.579,6.039,9.015,7.878,9.507,5.1,19.253,9.778,29.1,14.184,3.115,1.4,6.829,1.647,10.313,1.988,3.843.375,5-1.6,3.181-5.084-1.213-2.318-2.967-4.4-3.893-6.807-1.386-3.622-.277-5.821,3.465-6.98,3.348-1.036,6.854-1.559,10.291-2.315,4.851-1.065,5.557-2.627,3.251-7.012-2.57-4.889-5.094-9.8-7.717-14.858,2.34-2.526,5.027-2.5,7.96-1.651,6.558,1.906,13.082,2.274,19.621-.255,2.2-.85,3.55-1.972,3.931-4.429a23.19,23.19,0,0,1,8.118-14.1c7.891-6.851,15.876-13.592,23.889-20.3,3.481-2.917,4.312-2.69,6.558,1.175,1.509,2.6,3.024,5.188,4.753,8.155,2.583-1.43,4.99-2.69,7.321-4.076,2-1.191,3.333-.857,3.985,1.44,2.5,8.82,9.069,12.036,17.5,12.975,13.2,1.474,16.752,6.763,12.6,19.391-1.512,4.6-4.183,8.817-6.4,13.17a46.658,46.658,0,0,1-2.684,4.032c5.292.967,9.919,1.792,14.534,2.662,12.121,2.284,24.223,4.693,36.685,3.852,1.068-.069,2.769.542,3.141,1.326.384.806-.173,2.5-.888,3.307-2.844,3.191-6.064,6.051-8.836,9.3a61.6,61.6,0,0,0-4.589,7.024c.255.375.507.753.762,1.131,2.759-.432,5.679-.425,8.247-1.37,8.344-3.081,16.679-6.243,24.775-9.907a105.8,105.8,0,0,0,14.692-8.483c6.413-4.259,7.771-7.673,4.92-14.679a53.3,53.3,0,0,0-7.96-13.041c-5.906-7.352-7.349-14.3-3.755-21.2,1.32-2.533,2.744-3.771,5.506-2a21.275,21.275,0,0,0,2.416,1.052c8.631,4.1,10.849,9.166,7.3,18.024-2.665,6.659-2.161,12.676,1.89,18.582,1.468,2.139,2.539,2.227,4.394.513a47.547,47.547,0,0,0,13.838-21.7c1.09-3.777.05-8.5-1.052-12.515-2.7-9.825-.331-18.157,6.369-25.424a58.256,58.256,0,0,1,21.612-14.818c.781,4.637,1.493,8.892,2.218,13.148.614,3.588,1.452,7.154,1.824,10.767.724,7.015-2.177,12.619-7.765,16.616-5.213,3.726-10.789,6.939-16.147,10.467a8.25,8.25,0,0,0-2.882,2.791c-6.353,12.424-15.952,22.226-25.628,31.972-1.506,1.518-3.033,3.021-4.52,4.558a5.105,5.105,0,0,0-.589,1.263c10.253-1.6,19.908-4.013,28.088-10.439,9.6-7.541,18.919-15.485,28.866-22.538,9.828-6.968,20.3-13.025,30.463-19.508,3.389-2.164,6.88-4.208,10.061-6.65,4.665-3.588,7.166-8.344,6.584-14.43a17.493,17.493,0,0,1,7.015-16.238c6.543-5.094,8.927-11.885,9.22-19.772q.468-12.446.98-24.891a10.888,10.888,0,0,1,.069-1.506c.529-3.037,1.194-6.706,4.511-7.047,1.594-.164,3.777,2.948,5.257,4.908,1.178,1.559,1.651,3.638,2.517,5.449,1.9,3.972,4.678,4.813,7.758,1.764,8.2-8.121,18.493-11.353,29.418-13.306,7.314-1.307,14.068-3.739,19.539-9.081.844-.825,2.419-.9,3.657-1.326.394,1.241,1.364,2.63,1.09,3.7-1.5,5.818.977,8.848,6.457,10.133,2.17.507,2.136,2.035,1.676,3.83-1.046,4.092-1.988,8.215-3.046,12.641M266.319,177.422c1.884,5.686,3.563,11.312,5.616,16.8,2.589,6.917,5.267,13.825,8.341,20.535a11.01,11.01,0,0,0,8.662,6.587c9.4,1.345,19.483-4.265,23.537-12.761,1.115-2.337,3.15-4.24,4.76-6.341-2.381,7.689-5.3,14.871-7.869,22.17-1.5,4.256-.816,8.691,2.936,11.293,7.1,4.92,14.314,10.048,23.055,11.57a10.643,10.643,0,0,0,7.929-2.041,21.406,21.406,0,0,0,7.144-17.99c-.989-9.138-4.108-18.049-6.442-27.024-.331-1.276-1.38-2.362-2.41-4.048-4.243,7.163-1.4,15.564-6.209,21.707a28.273,28.273,0,0,1-.05-7.966c.542-4.473,1.348-8.918,1.808-13.4.249-2.4-1.15-3.361-3.3-2.136-2.385,1.358-4.58,3.046-6.867,4.58-1.559,1.043-3.134,2.063-4.7,3.1l-.633-.832c3.2-3.887,6.407-7.777,10.209-12.389-13.261-1.547-20.9,7.418-30.526,12.09.762-1.613,1.49-3.5,2.867-4.416,5-3.3,10.133-6.432,15.391-9.311,2.911-1.594,5.38-3.32,6.8-6.965l-60.054-2.8m92.669-40.181,1.115.094c0,2.709.444,5.512-.094,8.111-1.011,4.892-2.633,9.658-3.909,14.5-.472,1.792-1.358,3.874-.844,5.424a9.4,9.4,0,0,0,3.991,4.464c.58.353,2.9-1.055,3.626-2.177,8.968-13.784,17.867-27.616,26.567-41.57a19.877,19.877,0,0,0,2.3-7.481c.75-5.027-1.418-8.146-6.3-9.488-3.024-.832-6.111-1.43-9.163-2.17-6.795-1.644-12.8-4.5-16.591-10.792-.233-.387-.734-.614-1.213-1-3.452,4.6-6.854,9.072-10.193,13.6-2.385,3.235-4.769,6.476-6.971,9.834a6.029,6.029,0,0,0-1.15,3.827c2.022,11.5,4.145,22.979,6.514,34.41a5.117,5.117,0,0,0,3.449,3.087c.951.18,2.923-1.386,3.323-2.551,1.657-4.845,2.911-9.831,4.268-14.777.485-1.764.847-3.559,1.269-5.342m-77.156-8.877c7.648,13.466,12.477,27.09,21.735,38.266,6.643,8.014,15.1,12,25.553,10.915a6.583,6.583,0,0,0,4.416-3.125c.5-.973-.526-3.352-1.572-4.4-3.641-3.641-7.541-7.031-11.45-10.389a14.085,14.085,0,0,0-3.452-1.622c.551-.671,1.1-1.342,1.651-2.013,3.745,1.959,7.494,3.919,11.828,6.19-2.46-5.418-4.671-10.288-6.883-15.161q.685-.373,1.37-.743,6.45,9.563,12.931,19.168c2.725-1.723,5.957-2.353,5.2-6.388-1.619-8.64-2.816-17.372-4.744-25.937-2.306-10.231-7.434-12.89-17.486-9.771-10.889,3.38-21.968,5.449-33.428,5.018-1.468-.054-2.939-.006-5.67-.006m91.034,90.546-1.2.888a34.788,34.788,0,0,1-4.193-4.086c-4.315-5.868-8.4-11.91-12.745-17.756-.841-1.128-2.485-1.66-3.758-2.466-.416,1.323-1.288,2.687-1.181,3.966q1.588,18.971,3.525,37.913c.117,1.15,1.021,2.992,1.846,3.169,6.24,1.326,12.565,3.257,18.843,3.188,8.886-.094,17.775-1.607,26.627-2.775a8.964,8.964,0,0,0,7.7-11.267c-1.049-4.517-2.054-9.157-4-13.312-1.336-2.841-3.8-5.957-6.552-7.185-10.074-4.5-20.424-8.423-30.816-12.156-1.6-.576-4.41.476-5.787,1.732-.718.655-.038,3.745.9,5.128,2.608,3.84,5.736,7.324,8.552,11.031a32.363,32.363,0,0,1,2.243,3.988M632.007,64.6c.2.362.387.725.583,1.084a23.17,23.17,0,0,1-2.671,2.5c-5.383,3.692-10.908,7.179-16.172,11.028-1.537,1.121-2.369,3.2-3.525,4.842,1.632.668,3.267,1.921,4.889,1.9,8.288-.088,16.626,0,24.838-.92q19.68-2.216,25.6-21.625c2.183-7.157,5.774-13.882,8.606-20.853.513-1.263,1.043-3.241.438-4.032-.624-.819-2.712-1.03-4-.756-8.719,1.849-17.47,3.626-26.069,5.944-15.621,4.215-28.57,12.282-36.546,26.942a9.733,9.733,0,0,0-1.468,4.193,5.582,5.582,0,0,0,1.641,3.537c.328.34,2.038-.324,2.895-.879,5.279-3.408,10.464-6.968,15.753-10.36a47.791,47.791,0,0,1,5.213-2.545M375.359,197.343c-.057.529-.11,1.055-.164,1.584,6.313,1.915,12.581,4,18.953,5.7,6.3,1.679,11.2,4.788,14.115,10.874a21.368,21.368,0,0,0,4.571,5.938c6.114,5.84,13.611,9.406,21.392,12.449,1.921.753,3.241.277,3.777-1.714,1.717-6.4,3.789-12.739,4.945-19.24,1.934-10.9-2.435-18.78-12.483-23.66-4.86-2.356-9.39-5.39-14.25-7.749a9.107,9.107,0,0,0-5.487-.331c-5.012,1.065-9.891,3.2-14.925,3.6-9.519.75-19.114.558-28.674.81a38.79,38.79,0,0,0-4.145.545c-.107.46-.217.92-.324,1.38,4.278,1.884,8.4,4.435,12.874,5.5,6.949,1.657,14.147,2.249,21.218,3.405,5.207.854,10.382,1.884,15.574,2.835l-.217,1.181c-12.414,1.578-24.264-5.818-36.748-3.106M63.539,65.472c.268-.454.535-.9.8-1.358a40.452,40.452,0,0,1,4.942,2.356c5.182,3.342,10.2,6.939,15.448,10.171,1.373.847,3.345.728,5.04,1.052-.016-1.578.432-3.339-.12-4.7-4.026-9.963-11.107-17.271-20.418-22.44C58.871,44.8,47.521,41.983,36,39.806c-4.382-.828-8.842-1.254-13.5-1.9a9.5,9.5,0,0,0,.123,2.2c4.057,10.285,7.944,20.642,12.307,30.8,2.482,5.777,7.091,9.469,13.236,11.529,10.723,3.591,21.662,4.334,32.8,3.408,2.744-.227,5.453-.879,8.177-1.336.035-.353.069-.706.107-1.058Q76.389,74.459,63.539,65.472m369.206,86.265a9.712,9.712,0,0,0-2.5-.819c-13.192.243-25.953-2.533-38.77-5.166-4.293-.879-9.292-.293-12.143,3.393-4.441,5.742-8.13,12.08-11.923,18.3-.879,1.44-.9,3.405-1.493,5.853,3.909-.743,6.9-1.314,9.891-1.881.082.173.167.343.249.517q-4.21,3.237-8.426,6.47c.148.4.3.8.441,1.206a49.577,49.577,0,0,0,6.637,2.353c10.88,2.23,21.577.891,31.875-2.8,3.263-1.165,6.284-3.733,8.719-6.316,4.561-4.842,8.625-10.156,12.868-15.3,1.49-1.8,2.9-3.676,4.58-5.809M86.168,57.049A32.078,32.078,0,0,0,68.047,18.695c-6.4-2.772-13.362-4.293-20.147-6.086-4.9-1.295-9.938-2.1-15.624-3.27.583,1.692.81,2.614,1.2,3.459,3.276,7.069,6.735,14.058,9.812,21.212a8.49,8.49,0,0,0,6.183,5.361A99.663,99.663,0,0,1,81.406,54.353c1.389.964,2.948,1.679,4.763,2.7M664.8,10.319c-.344-.5-.684-1.011-1.027-1.515-11.664,3.276-23.549,5.941-34.918,10.036-8.165,2.939-13.724,9.683-17.145,17.747a20.908,20.908,0,0,0,1.052,19.489,8.5,8.5,0,0,0,1.7-.652,105.432,105.432,0,0,1,35.21-16.758,5.331,5.331,0,0,0,2.863-2.605c2.589-5.021,5-10.143,7.418-15.246,1.654-3.481,3.232-7,4.842-10.5M16,108.2c.652-.324.8-.35.866-.438A12.462,12.462,0,0,0,17.9,106.22C21.206,99.756,26.432,96,33.715,95.746c4.741-.164,9.5.5,14.257.463a27.33,27.33,0,0,0,9.166-1.175c1.5-.558,2.227-3.2,3.3-4.9-1.263-.784-2.435-2-3.8-2.284-7.084-1.446-13.91-3.506-19.772-7.891-3.159-2.362-6.083-3.175-9.926-1.219-2.728,1.386-6.114,1.414-9.05,2.482a122.982,122.982,0,0,0-12.348,5.3c-.945.466-2.092,2.425-1.8,3.2C6.379,96.8,9.658,103.539,16,108.2m664.545-.088c6.187-3.673,8.971-9.113,11.513-14.758,2.526-5.607,2.731-6.035-2.923-8.307-6.376-2.564-13.217-3.947-19.65-6.388a8.863,8.863,0,0,0-9.078,1.194,49.414,49.414,0,0,1-20.091,8.168c-1.329.243-3.66,1.408-3.588,1.8.287,1.613.961,3.931,2.161,4.451a26,26,0,0,0,8.9,2.044c2.967.148,5.972-.806,8.981-.954,10.263-.513,19.039,2.029,23.773,12.748M173.36,68.137c-.907,2.2-1.8,3.975-2.385,5.843-4.725,15.01-1.288,25.874,10.5,32.461,8.861,4.952,11.649,3.582,14.15-7.324a9.67,9.67,0,0,0-.054-3.377c-1.884-13.441-10.918-21.1-22.214-27.6m349.891-.8c-3.72,3.018-6.974,5.544-10.1,8.215-5.481,4.687-9.453,10.373-11.044,17.527-1.314,5.919-.18,11.274,4.152,15.624a3.955,3.955,0,0,0,3.667.658,91.849,91.849,0,0,0,11.9-7.9c2.133-1.739,4.3-4.271,4.958-6.832,2.362-9.154,1.228-18.084-3.537-27.295m66.962,22.1c.447.154.895.306,1.345.46,7.409-8.054,13.791-16.645,14.184-28.356.154-4.646.526-9.3.441-13.936q-.208-11.486-.992-22.954c-.069-1.062-1.607-2.816-2.5-2.841a4.653,4.653,0,0,0-3.645,2.066,15.722,15.722,0,0,0-1.247,6.18c-.161,5.405.057,10.82-.082,16.229-.214,8.433-2.873,15.681-9.957,21a14.028,14.028,0,0,0-4.274,5.982c-1.625,4.205-.28,7.963,3.122,9.806q2.882-5.235,5.774-10.486c.239.123.479.249.718.372q-1.441,8.24-2.885,16.478M93.845,19.92c-.91,3.352-2.375,6.376-2.448,9.431-.246,10.562.154,21.136,0,31.7s4.678,18.512,12.436,25.068a16.012,16.012,0,0,0,2.81,1.377c-.825-5.264-1.531-9.79-2.24-14.317a22.538,22.538,0,0,1,3.465,5.04c1.008,1.77,2.063,3.512,3.267,5.547,4.347-7.333,3.78-11.686-1.818-16.333A25.726,25.726,0,0,1,99.732,48.1c-.315-6.4-.52-12.814-.495-19.224.016-3.783-1.477-6.451-5.393-8.959M312.5,120.093c12.017-.072,24.5,4.171,31.314-9.995A9.811,9.811,0,0,1,345,108.646c4.656-6.133,4.586-12.354-.457-18.141-.655-.75-2.844-1.235-3.506-.743-6.839,5.09-13.712,10.165-20.147,15.737-4.089,3.537-6.637,8.363-8.395,14.594m293.575-18.878c-.148.428-.293.857-.441,1.285,3,1.918,5.834,4.2,9.037,5.689,7.8,3.635,15.74,2.277,23.537-.249A39.24,39.24,0,0,0,643.955,105c-1.329-2.07-2.624-4.161-4.016-6.187a4.228,4.228,0,0,0-1.525-1.09c-9.544-5.128-19.486-8.9-30.574-7.969-3.752.315-7.45,1.279-11.173,1.944-.022.428-.047.854-.069,1.279l15.318,6.067c-.148.337-.3.671-.444,1-.869.1-1.758.142-2.608.328-.948.208-1.862.551-2.791.835m-486.7,63.233c-12.824-.1-24.145-3.251-34.281-10.247a3.255,3.255,0,0,0-2.425-.369,94.516,94.516,0,0,0-11.11,3.487c-2.454,1.03-4.558,2.9-7.494,4.835a101.883,101.883,0,0,0,28.155,10.779,37.771,37.771,0,0,0,21.133-1.531c3.163-1.1,4.8-3.289,6.023-6.955m-20.3-72.8c-1.569-.482-2.807-.973-4.092-1.241-13.233-2.756-25.143,1.178-36.445,7.551-1.953,1.1-3.452,3.273-4.665,5.254-.406.662.425,3.008,1.206,3.323,6.577,2.681,13.422,4.476,20.595,3.6a24.139,24.139,0,0,0,16.147-8.9c-2.684-.576-4.681-1.008-7.264-1.562,4.486-3.758,11.135-2.429,14.518-8.023m516.449,54.17c-1.254-.507-2.151-.929-3.084-1.238-14.6-4.826-28.312-.239-41.974,4.177-1.081.35-1.5,2.756-2.227,4.205,1.191.372,2.407,1.128,3.56,1.039,4.155-.324,8.288-.932,12.427-1.433.06.265.123.529.183.791-5.657,1.906-11.315,3.811-17.829,6,15.136,5.572,36.735.784,48.944-13.545m16.515,17.174.4-1.654c-2.633-1.49-5.138-3.3-7.929-4.382a46.975,46.975,0,0,0-9.482-2.381,7.233,7.233,0,0,0-4.715.7,52.421,52.421,0,0,1-19.731,8.114c-3.8.668-7.673.917-11.589,1.364-.372,2.917.646,4.816,3.276,5.764a49.452,49.452,0,0,0,7.113,2.426c15.763,3.078,29.147-3.745,42.66-9.954M81.595,146.278c8.921,12,38.855,20.336,47.464,12.8-5.238-1.934-10.278-3.8-15.318-5.661,5.72-1.7,11.233,2.605,16.966-.183-7.68-9.733-39.258-14.055-49.111-6.955m222.767,27.988c0-.252.1-.558-.016-.725-4.139-6.124-8.514-12.105-12.367-18.405-1.928-3.156-4.492-4.552-7.7-3.978a68.89,68.89,0,0,0-11.73,3.534c-.621.23-1.232,2.4-.838,3.134a108.985,108.985,0,0,0,6.99,11.567c6.385,8.955,14.21,10.612,25.663,4.873M3.5,57.314c4.555,6.039,8.284,11.523,12.6,16.5,2.851,3.292,10.354,2.964,13.6-.025a2.32,2.32,0,0,0,.614-1.95c-1.632-5.223-3.27-10.448-5.194-15.564-.409-1.084-2.114-2.57-3.008-2.438-5.9.873-11.743,2.139-18.613,3.474m690.356-.06c-7.424-1.332-13.535-2.517-19.69-3.408-.718-.1-2.07,1.247-2.448,2.2-1.9,4.769-3.613,9.614-5.27,14.474a3.2,3.2,0,0,0,.176,2.64c2.662,2.917,11.075,4.073,13.6,1.291,4.659-5.131,8.672-10.852,13.633-17.193M86.408,181.8c2.822.891,4.794,1.613,6.817,2.133,12.88,3.3,24.718,1.84,34.42-8.1a5.427,5.427,0,0,0,1.08-4.741c-.917-2.249-2.989-1.4-4.816-.517a55.921,55.921,0,0,1-25.839,5.79c-4.665-.1-7.7,2.173-11.661,5.434m480.029-11.545c3.934,9.859,11.463,12.751,19.555,14.638,8.338,1.947,16.216.756,23.486-4.671-3.4-1.732-6.867-3.629-10.392-3.748a64.586,64.586,0,0,1-24.882-5.409c-2.013-.91-4.608-.523-7.768-.81m-64.814,38.257c-3.046-9.412-12.937-16.871-21.571-16.972-3.311-.041-5.2,1.8-4.857,4.725.791,6.7,7.834,13.485,14.647,13.551,3.805.035,7.62-.813,11.781-1.3m-307.4-1.027c5.264.668,9.661,1.411,14.093,1.742,4.467.337,7.73-1.937,9.85-5.749a37.7,37.7,0,0,0,2.52-5.875c1.506-4.3-.608-7.185-4.993-6.18-8.9,2.041-16.207,6.59-21.47,16.062m27.94-84.939c6.476-4.5,8.439-10.455,6.243-17.054-.677-2.029-1.512-2.5-3.563-1.78-6.325,2.24-8.4,6.549-5.768,12.587.885,2.035,1.966,3.991,3.087,6.246M22.8,18.484c1.991,4.766,3.752,9.148,5.683,13.457.438.976,1.373,2.274,2.233,2.407a15.158,15.158,0,0,0,6.224-.255c.454-.126.488-2.992.132-4.457A26.373,26.373,0,0,0,34.751,24.1c-2.315-4.6-5.538-6.221-11.948-5.613M84.48,177.322a24.776,24.776,0,0,0-4.063-1.414c-3.263-.558-7.358,1.9-8.851,5.179a7.22,7.22,0,0,0,1.591,8.64c2.016,2.041,4.867,2.114,5.783.167,1.9-4.035,3.607-8.155,5.541-12.572m527.94-.079c2.038,4.054,3.9,7.821,5.821,11.564,1.761,3.427,3.235,3.742,5.815.926a8.054,8.054,0,0,0,1.994-4.265c.787-7.232-5.1-11.025-13.63-8.225M475.015,120.776c6.669-8.508,4.832-14.414-5.2-17.441-3.052,8.215-1.534,13.466,5.2,17.441m109.481.517c-4.375-4.227-9.787-4.177-13.5-.044,4.274,4.013,8.593,4.095,13.5.044m-471.971,1.55h13.123c-4.75-4.514-9.245-4.492-13.123,0" transform="translate(-0.001 0.001)" fill="#fcfaf7"></path>
    </g>
    <g id="Group_112" data-name="Group 112" transform="translate(200 184.807)" clip-path="url(#clip-path-2)">
      <path id="Path_2943" data-name="Path 2943" d="M720.019,32.479c3.943.494,7.336.918,11.921,1.489-1.876,2.965-3.042,5.473-4.794,7.467-8.512,9.679-7.884,11.585,4.663,14.661,4.313,1.056,8.462,2.8,13.4,4.478-4.653,6.6-8.448,12.254-12.54,17.683-1.967,2.609-1.879,4.364.793,6.277,2.5,1.792,4.818,3.859,7.181,5.843a6.56,6.56,0,0,1,2.021,8.038,173.453,173.453,0,0,1-9.013,16.544c-1.049,1.728-3.069,2.992-4.871,4.112-3.3,2.054-5.258,1.378-7.141-2.115-.128-.235-.208-.5-.353-.723-1.856-2.831-3.086-6.882-5.708-8.24-5.947-3.079-12.805-3.12-19.247-1.314-1.762.491-3.231,3.365-4.075,5.453-1.126,2.79-2.619,4.266-5.708,4.754-6.724,1.056-13.343,2.979-20.094,3.631-3.564.346-7.467-.8-10.953-2.027-7.84-2.75-15.518-5.967-23.257-9a30.813,30.813,0,0,0-20.907-1.072c-8.5,2.632-16.749,5.816-23.513,11.881a32.946,32.946,0,0,0-2.723,3.285,40.177,40.177,0,0,0,21.388.1c7.144-1.98,14.3-2.579,21.429-.289,1.866.6,3.409,2.2,5.1,3.338-1.187,1.634-2.1,3.6-3.607,4.844-6.546,5.429-13.8,6.051-21.476,2.542-1.217-.558-2.41-1.18-3.584-1.829-13.79-7.6-28.878-5.877-40.86,4.465-6.505,5.618-13.215,11-19.882,16.433a49.524,49.524,0,0,1-4.323,2.854c.316.605.635,1.207.951,1.812,4.017.434,8.028,1.076,12.056,1.261,11.773.531,23.563,1.278,35.333,1.109,4.67-.067,9.427-1.994,13.935-3.641a126.927,126.927,0,0,1,59.892-6.529c2.441.3,4.727,1.826,7.722,3.042-1.856,2.094-2.975,3.362-4.1,4.629-2.266,2.558-2.071,4.327,1.059,5.883,3.234,1.61,6.734,2.693,9.958,4.323a59.151,59.151,0,0,1,6.378,4.33c-4.424,6.865-12.691,6.061-18.988,11.925a20.529,20.529,0,0,1,4,2.205c8.3,7.48,5.645,19.3-5.086,22.878-4.986,1.661-7.235.208-7.174-5,.034-2.646-.9-3.681-3.483-3.584-4.69.178-9.4.044-14.073.41-17.061,1.338-30.169-5.951-40.823-18.541-2.945-3.476-5.523-7.265-8.253-10.923-4.249-5.688-9.854-8.317-17.021-8.257-7.786.064-15.582-.229-23.365-.6-15.885-.76-30.768,4.034-45.7,8.287-10.953,3.12-21.687,7.016-32.509,10.6-1.294.427-2.525,1.042-3.785,1.567.054.336.111.672.165,1.009,2.8.622,5.6,1.271,8.411,1.862a74.105,74.105,0,0,1,24.363,10.21,24.421,24.421,0,0,0,10.052,3.51c14.214,1.536,24.034,9.655,32.479,20.255-10.425,9.326-22.353,10.425-30.617,2.38a29.323,29.323,0,0,1-7.03-10.973c-2.911-8.391-7.951-14.446-15.922-18.228-10.768-5.107-26.418-7.006-39.8-4.344,3.053,2.8,5.419,5.4,8.2,7.436,3.671,2.7,7.7,4.9,11.5,7.436,6.862,4.586,9.84,11.064,9.319,19.287-.619,9.763-2.515,19.112-7.729,27.608-1.913,3.116-4.32,4.542-7.675,2.968-3.745-1.755-7.315-3.886-10.906-5.954-2.868-1.651-5.651-3.449-8.946-5.477-1.412,3.5-2.656,6.411-3.769,9.37-2.279,6.058-6.512,9.121-13.068,9.524-7.483.461-14.943,2.084-22.4,1.973a92.4,92.4,0,0,1-21.341-3c-4.128-1.056-7.339-1.082-10.234,1.819-6.791,6.808-14.1,6.636-22.024,2.222-4.33-2.41-8.963-4.286-13.266-6.741a17.174,17.174,0,0,1-9.158-15.939c.03-3.627-.938-4.986-5-4.091a72.251,72.251,0,0,1-13.552,1.241c-5.752.161-9.766-3.049-12.083-7.947a122.706,122.706,0,0,1-6.62-16.789c-2.592-8.583-5.638-16.742-12.341-23.13-1.866-1.778-3.547-2.693-6.035-1.893-5.345,1.715-10.845,3.042-16.019,5.167-7.03,2.888-11.558,8.062-14.123,15.525-1.6,4.656-4.733,9.017-7.978,12.829-4.33,5.083-10.429,6.579-16.89,5.06a65.64,65.64,0,0,1-11.645-4.172c-2.118-.948-2.525-2.652-.78-4.865,8.169-10.368,18.305-17.1,31.736-18.621,3.486-.4,6.9-2.061,10.183-3.5,8.566-3.762,17.045-7.722,25.56-11.6.706-.326,1.419-.645,2.774-1.257a17.426,17.426,0,0,0-2.787-1.936c-28.976-11.666-58.523-20.652-90.3-18.779a138.5,138.5,0,0,0-14.806,1.664c-5.722.955-9.712,4.088-12.778,9.333-8.418,14.389-20.154,24.928-37.36,27.137-6.72.864-13.663-.064-20.507-.1-5.524-.027-6.078.451-6.747,6.028-.333,2.763-1.805,3.708-4.387,3.375-5.349-.682-11.145-5.9-12.563-11.272-1.039-3.943-.5-7.5,2.679-10.281,1.711-1.5,3.617-2.774,5.433-4.149-.161-.608-.323-1.214-.484-1.822-2.515-1.237-5-2.545-7.557-3.695-2.313-1.039-4.871-1.62-7.023-2.908-3.513-2.1-3.456-4.33-.1-6.774a15.17,15.17,0,0,1,3.2-1.657c1.489-.6,3.036-1.072,4.562-1.587,9.306-3.13,9.514-3.738,3.9-11.407a10.988,10.988,0,0,1-.642-1.19c4.29-3.762,9.642-3.7,14.762-4.021,17.078-1.072,33.989.545,49.954,6.7,14.093,5.439,28.26,5.587,42.81,3.89,6.875-.8,13.777-1.362,21.553-2.118a28.5,28.5,0,0,0-2.528-2.958c-7.917-6.663-15.508-13.787-23.9-19.788-8.68-6.206-18.558-9.9-29.561-7.137a29.333,29.333,0,0,0-8.653,4.1c-9.017,5.907-17.159,5.914-25.651-.555-1.355-1.032-3.274-3.426-2.9-4.189a8.286,8.286,0,0,1,4.582-3.883,36.169,36.169,0,0,1,21.412.262c6.966,2.125,13.952,1.688,21.667-.03a27.6,27.6,0,0,0-2.572-3.059c-8.825-7.571-19.247-12.365-30.586-13.189-6.794-.494-13.885,2.373-20.76,4.068a34.853,34.853,0,0,0-8.516,3.547c-11.37,6.374-23.113,6.959-35.421,3.157-5.147-1.587-9.9-3.059-11.185-9.245-.2-.975-1.748-2.108-2.864-2.384a28.758,28.758,0,0,0-18.168,1.133c-6.317,2.609-8.519,8.166-9.6,15.162-1.684-1.005-3.184-1.53-4.169-2.548A56.185,56.185,0,0,1,1.887,97.262c-1.274-4.209.686-7.638,5.725-10.778,6.186-3.863,6.364-4.347,2.128-10.6-2.706-4-5.712-7.793-8.623-11.649C-.9,61.555-.1,59.716,2.845,58.765c3.688-1.2,7.473-2.091,11.175-3.248,3.106-.972,6.152-2.131,9.79-3.409-2.4-3.715-4.259-6.633-6.162-9.521C15.9,39.928,14.09,37.3,11.8,33.9c4.9-.531,8.458-.918,12.684-1.378-1.247-3.994-2.226-7.705-3.574-11.279-1.4-3.715-.252-5.759,3.4-7.06,5.92-2.115,5.873-2.222,4.851-8.317a14.607,14.607,0,0,1-.262-2.8c.091-2.878,1.984-4,4.233-2.192,8.4,6.751,18.275,9.978,28.552,12.345,9.427,2.172,17.868,6.472,25.826,11.867,3.957,2.679,5.44,2.293,7.82-1.98,1.035-1.862,1.368-4.2,2.646-5.826,1.546-1.977,3.755-3.436,5.678-5.117,1.405,2.135,3.782,4.155,4.048,6.425a174.167,174.167,0,0,1,1.577,24.478C109,54.532,111.806,64.218,121.3,71.426c4.172,3.17,5.611,7.769,5.123,12.9-1,10.469,3.893,17.794,12.866,22.118,21.644,10.429,40.383,24.979,58.655,40.245,10.311,8.61,21.674,14.863,35.232,16.48.474.057.958.007,2.444.007-2.992-3.083-5.2-5.749-7.8-7.968-9.252-7.917-16.043-17.593-21.509-28.391a17.715,17.715,0,0,0-5.914-6.072c-4.982-3.379-10.566-5.917-15.347-9.534-7.958-6.021-10.5-14.08-7.86-23.937,1.691-6.314,2.579-12.842,3.984-20.074,2.212.861,4.562,1.224,6.179,2.508,5.571,4.424,11.05,8.993,16.258,13.834,7.332,6.808,10.331,15.707,7.144,24.955-6.216,18.06,5,28.7,14.812,40.339,5.641-3.564,8.348-11.945,6.381-18.847-.625-2.189-1.523-4.3-2.128-6.5-1.822-6.606-.249-10.906,5.557-14.4,2.854-1.715,6-2.945,9.074-4.424,4.9,5.8,6.105,12.015,2.985,18.558a56.636,56.636,0,0,1-7.164,11.108,33.764,33.764,0,0,0-6.912,16.483,5.188,5.188,0,0,0,1.217,3.93c3.022,3.012,5.954,6.445,9.622,8.408,10.146,5.443,20.548,10.435,31.057,15.138,3.325,1.489,7.289,1.758,11.007,2.121,4.1.4,5.339-1.708,3.4-5.426-1.294-2.474-3.167-4.693-4.155-7.265-1.479-3.866-.3-6.213,3.7-7.45,3.574-1.106,7.315-1.664,10.983-2.471,5.177-1.136,5.93-2.8,3.469-7.484-2.743-5.218-5.436-10.459-8.237-15.858,2.5-2.7,5.366-2.669,8.5-1.762,7,2.034,13.962,2.427,20.941-.272,2.343-.908,3.789-2.1,4.2-4.727a24.75,24.75,0,0,1,8.664-15.048c8.421-7.312,16.944-14.506,25.5-21.667,3.715-3.113,4.6-2.871,7,1.254,1.61,2.77,3.227,5.537,5.073,8.7,2.757-1.526,5.325-2.871,7.813-4.35,2.138-1.271,3.557-.914,4.253,1.536,2.669,9.413,9.679,12.846,18.675,13.848,14.093,1.573,17.878,7.218,13.444,20.7-1.614,4.9-4.465,9.41-6.828,14.056a49.785,49.785,0,0,1-2.864,4.3c5.648,1.032,10.587,1.913,15.512,2.841,12.936,2.437,25.853,5.009,39.152,4.112,1.14-.074,2.955.578,3.352,1.415.41.861-.185,2.673-.948,3.53-3.036,3.406-6.472,6.458-9.43,9.921-1.926,2.249-3.285,4.982-4.9,7.5.272.4.541.8.814,1.207,2.945-.461,6.061-.454,8.8-1.462,8.906-3.288,17.8-6.663,26.441-10.573a112.913,112.913,0,0,0,15.68-9.054c6.845-4.545,8.294-8.19,5.251-15.666a56.883,56.883,0,0,0-8.5-13.918c-6.3-7.847-7.843-15.266-4.007-22.622,1.409-2.7,2.928-4.024,5.877-2.138a22.7,22.7,0,0,0,2.579,1.123c9.211,4.377,11.578,9.783,7.793,19.237-2.844,7.107-2.306,13.528,2.017,19.832,1.567,2.283,2.71,2.377,4.69.548a50.745,50.745,0,0,0,14.769-23.16c1.163-4.031.054-9.074-1.123-13.357-2.881-10.486-.353-19.378,6.8-27.134A62.175,62.175,0,0,1,563.46,67.4c.834,4.949,1.594,9.491,2.367,14.032.656,3.829,1.55,7.635,1.947,11.491.773,7.487-2.323,13.468-8.287,17.734-5.564,3.977-11.514,7.406-17.233,11.171a8.8,8.8,0,0,0-3.076,2.979c-6.781,13.259-17.025,23.721-27.352,34.123-1.607,1.62-3.237,3.224-4.824,4.865a5.447,5.447,0,0,0-.629,1.348c10.943-1.711,21.247-4.283,29.978-11.141,10.25-8.048,20.191-16.527,30.808-24.054,10.489-7.436,21.661-13.9,32.513-20.82,3.617-2.31,7.342-4.491,10.738-7.1,4.979-3.829,7.648-8.906,7.026-15.4a18.67,18.67,0,0,1,7.487-17.33c6.983-5.436,9.528-12.684,9.84-21.1q.5-13.283,1.046-26.565a11.624,11.624,0,0,1,.074-1.607c.565-3.241,1.274-7.157,4.814-7.52,1.7-.175,4.031,3.147,5.611,5.238,1.257,1.664,1.762,3.883,2.686,5.816,2.031,4.239,4.992,5.137,8.28,1.883,8.754-8.667,19.737-12.116,31.4-14.2,7.806-1.4,15.014-3.991,20.854-9.692.9-.881,2.582-.961,3.9-1.415.42,1.325,1.456,2.807,1.163,3.95-1.6,6.209,1.042,9.443,6.892,10.815,2.316.541,2.279,2.172,1.789,4.088-1.116,4.367-2.121,8.768-3.251,13.491M284.233,189.357c2.01,6.068,3.8,12.072,5.994,17.925,2.763,7.383,5.621,14.755,8.9,21.916a11.751,11.751,0,0,0,9.245,7.03c10.028,1.436,20.793-4.552,25.12-13.619,1.19-2.495,3.362-4.525,5.08-6.767-2.542,8.206-5.651,15.871-8.4,23.661-1.6,4.542-.871,9.275,3.133,12.052,7.581,5.251,15.276,10.724,24.605,12.348a11.359,11.359,0,0,0,8.462-2.178,22.846,22.846,0,0,0,7.625-19.2c-1.056-9.753-4.384-19.264-6.875-28.841-.353-1.362-1.473-2.521-2.572-4.32-4.528,7.645-1.489,16.611-6.626,23.167a30.174,30.174,0,0,1-.054-8.5c.578-4.774,1.439-9.517,1.93-14.3.266-2.565-1.227-3.587-3.52-2.279-2.545,1.449-4.888,3.251-7.329,4.888-1.664,1.113-3.345,2.2-5.016,3.3l-.676-.888c3.419-4.149,6.838-8.3,10.9-13.222-14.153-1.651-22.3,7.917-32.58,12.9.814-1.721,1.59-3.738,3.059-4.713,5.339-3.523,10.815-6.865,16.426-9.938,3.106-1.7,5.742-3.543,7.262-7.433l-64.094-2.992m98.9-42.884,1.19.1c0,2.891.474,5.883-.1,8.657-1.079,5.221-2.811,10.307-4.172,15.475-.5,1.913-1.449,4.135-.9,5.789a10.036,10.036,0,0,0,4.259,4.764c.619.377,3.093-1.126,3.87-2.323,9.571-14.712,19.069-29.473,28.354-44.367a21.213,21.213,0,0,0,2.458-7.984c.8-5.366-1.513-8.694-6.72-10.126-3.227-.888-6.522-1.526-9.78-2.316-7.252-1.755-13.666-4.807-17.707-11.518-.249-.414-.783-.656-1.294-1.066-3.685,4.908-7.315,9.682-10.879,14.51-2.545,3.453-5.09,6.912-7.44,10.5a6.434,6.434,0,0,0-1.227,4.085c2.158,12.271,4.424,24.525,6.952,36.725a5.461,5.461,0,0,0,3.681,3.295c1.015.192,3.12-1.479,3.547-2.723,1.768-5.171,3.106-10.492,4.555-15.771.518-1.883.9-3.8,1.355-5.7M300.79,137c8.163,14.372,13.316,28.912,23.2,40.84,7.09,8.553,16.113,12.812,27.271,11.649a7.025,7.025,0,0,0,4.713-3.335c.535-1.039-.561-3.577-1.678-4.7-3.886-3.886-8.048-7.5-12.22-11.087-1-.854-2.444-1.17-3.685-1.731.588-.716,1.173-1.432,1.762-2.148,4,2.091,8,4.182,12.624,6.606-2.626-5.782-4.986-10.98-7.346-16.181q.731-.4,1.462-.793,6.883,10.207,13.8,20.457c2.908-1.839,6.357-2.511,5.55-6.818-1.728-9.222-3.006-18.541-5.063-27.682-2.461-10.919-7.934-13.757-18.662-10.429-11.622,3.607-23.446,5.816-35.676,5.355-1.567-.057-3.137-.007-6.051-.007m97.158,96.637-1.281.948a37.126,37.126,0,0,1-4.475-4.36c-4.606-6.263-8.963-12.711-13.6-18.951-.9-1.2-2.653-1.772-4.011-2.632-.444,1.412-1.375,2.868-1.261,4.233q1.694,20.247,3.762,40.463c.124,1.227,1.089,3.194,1.97,3.382,6.66,1.415,13.41,3.476,20.111,3.4,9.484-.1,18.971-1.715,28.418-2.962a9.567,9.567,0,0,0,8.216-12.025c-1.119-4.821-2.192-9.773-4.273-14.207-1.425-3.032-4.058-6.357-6.993-7.668-10.751-4.807-21.8-8.99-32.889-12.973-1.708-.615-4.707.508-6.176,1.849-.766.7-.04,4,.962,5.473,2.784,4.1,6.122,7.816,9.127,11.773a34.539,34.539,0,0,1,2.394,4.256M674.519,68.945c.208.387.414.773.622,1.156a24.732,24.732,0,0,1-2.851,2.666c-5.745,3.94-11.642,7.662-17.26,11.77-1.641,1.2-2.528,3.416-3.762,5.167,1.741.713,3.486,2.051,5.218,2.031,8.845-.094,17.744,0,26.508-.982q21-2.365,27.319-23.079c2.33-7.638,6.162-14.816,9.185-22.256.548-1.348,1.113-3.459.467-4.3-.666-.874-2.895-1.1-4.27-.807-9.306,1.973-18.645,3.87-27.823,6.344-16.671,4.5-30.492,13.108-39,28.754a10.387,10.387,0,0,0-1.567,4.475,5.958,5.958,0,0,0,1.751,3.775c.35.363,2.175-.346,3.09-.938,5.635-3.638,11.168-7.436,16.813-11.057a50.994,50.994,0,0,1,5.564-2.716M400.608,210.617c-.061.565-.118,1.126-.175,1.691,6.737,2.044,13.427,4.266,20.228,6.078,6.72,1.792,11.951,5.11,15.065,11.605a22.806,22.806,0,0,0,4.878,6.337c6.525,6.233,14.527,10.039,22.83,13.286,2.051.8,3.459.3,4.031-1.829,1.832-6.828,4.044-13.6,5.278-20.534,2.064-11.629-2.6-20.043-13.323-25.251-5.187-2.515-10.022-5.752-15.209-8.27a9.72,9.72,0,0,0-5.856-.353c-5.349,1.136-10.556,3.419-15.928,3.843-10.16.8-20.4.6-30.6.864a41.4,41.4,0,0,0-4.424.582c-.114.491-.232.982-.346,1.472,4.565,2.01,8.966,4.734,13.74,5.873,7.416,1.768,15.1,2.4,22.646,3.634,5.557.911,11.081,2.01,16.621,3.026l-.232,1.261c-13.249,1.684-25.9-6.209-39.22-3.315M67.813,69.876c.286-.484.572-.965.854-1.449a43.173,43.173,0,0,1,5.275,2.515c5.53,3.567,10.889,7.406,16.487,10.855,1.466.9,3.57.777,5.379,1.123-.017-1.684.461-3.564-.128-5.013-4.3-10.634-11.854-18.433-21.792-23.95-11.057-6.139-23.17-9.151-35.468-11.474-4.676-.884-9.437-1.338-14.409-2.024a10.134,10.134,0,0,0,.131,2.343c4.33,10.977,8.479,22.03,13.135,32.869,2.649,6.166,7.568,10.106,14.127,12.3,11.444,3.833,23.12,4.626,35,3.638,2.928-.242,5.819-.938,8.727-1.425.037-.377.074-.753.114-1.13Q81.528,79.467,67.813,69.876m394.041,92.068a10.366,10.366,0,0,0-2.673-.874c-14.079.259-27.7-2.7-41.378-5.513-4.582-.938-9.918-.313-12.96,3.621-4.74,6.129-8.677,12.893-12.725,19.526-.938,1.536-.965,3.634-1.594,6.246,4.172-.793,7.362-1.4,10.556-2.007.087.185.178.366.266.551q-4.493,3.454-8.993,6.905c.158.43.316.857.471,1.288a52.91,52.91,0,0,0,7.083,2.511c11.612,2.38,23.029.951,34.019-2.989,3.483-1.244,6.707-3.984,9.306-6.741,4.868-5.167,9.2-10.839,13.733-16.325,1.59-1.926,3.1-3.923,4.888-6.2M91.965,60.886A34.236,34.236,0,0,0,72.624,19.952c-6.828-2.958-14.261-4.582-21.5-6.5-5.234-1.382-10.607-2.239-16.675-3.49.622,1.805.864,2.79,1.284,3.691,3.5,7.544,7.188,15,10.472,22.639a9.062,9.062,0,0,0,6.6,5.722A106.367,106.367,0,0,1,86.881,58.009c1.483,1.029,3.147,1.792,5.083,2.878M709.516,11.013c-.366-.538-.73-1.079-1.1-1.617-12.449,3.5-25.133,6.34-37.266,10.711-8.714,3.137-14.648,10.334-18.3,18.941a22.314,22.314,0,0,0,1.123,20.8,9.073,9.073,0,0,0,1.819-.7,112.524,112.524,0,0,1,37.579-17.885,5.69,5.69,0,0,0,3.056-2.78c2.763-5.359,5.332-10.825,7.917-16.271,1.765-3.715,3.449-7.467,5.167-11.2M17.072,115.48c.7-.346.857-.373.925-.467a13.3,13.3,0,0,0,1.106-1.647c3.53-6.9,9.107-10.906,16.88-11.178,5.06-.175,10.143.531,15.216.494,3.291-.024,6.774-.138,9.783-1.254,1.6-.6,2.377-3.412,3.527-5.228-1.348-.837-2.6-2.138-4.054-2.437-7.561-1.543-14.846-3.742-21.1-8.421-3.372-2.521-6.492-3.389-10.593-1.3-2.911,1.479-6.525,1.509-9.659,2.649A131.253,131.253,0,0,0,5.921,92.343c-1.009.5-2.232,2.589-1.926,3.416,2.814,7.557,6.314,14.745,13.078,19.721m709.247-.094c6.6-3.92,9.575-9.726,12.288-15.75,2.7-5.984,2.915-6.441-3.12-8.865-6.8-2.737-14.106-4.212-20.971-6.818a9.459,9.459,0,0,0-9.689,1.274,52.737,52.737,0,0,1-21.442,8.717c-1.419.259-3.906,1.5-3.829,1.923.306,1.721,1.025,4.2,2.306,4.75a27.752,27.752,0,0,0,9.5,2.182c3.167.158,6.374-.861,9.585-1.019,10.953-.548,20.319,2.165,25.372,13.605M185.021,72.72c-.968,2.347-1.916,4.243-2.545,6.236-5.043,16.019-1.375,27.614,11.208,34.644,9.457,5.285,12.432,3.822,15.1-7.816a10.32,10.32,0,0,0-.057-3.6c-2.01-14.345-11.652-22.514-23.708-29.46m373.426-.857c-3.97,3.221-7.443,5.917-10.778,8.768-5.85,5-10.089,11.071-11.787,18.705-1.4,6.317-.192,12.032,4.431,16.675a4.222,4.222,0,0,0,3.913.7,98.025,98.025,0,0,0,12.7-8.428c2.276-1.856,4.589-4.559,5.292-7.292,2.521-9.77,1.311-19.3-3.775-29.131m71.467,23.59c.477.165.955.326,1.435.491,7.907-8.6,14.718-17.764,15.138-30.264.165-4.959.561-9.921.471-14.873q-.222-12.259-1.059-24.5c-.074-1.133-1.715-3.006-2.669-3.032a4.965,4.965,0,0,0-3.89,2.205,16.78,16.78,0,0,0-1.331,6.6c-.171,5.769.061,11.548-.087,17.32-.229,9-3.066,16.735-10.627,22.414a14.972,14.972,0,0,0-4.562,6.384c-1.735,4.488-.3,8.5,3.332,10.465q3.076-5.587,6.162-11.192c.255.131.511.266.766.4q-1.538,8.795-3.079,17.586M100.157,21.26c-.972,3.577-2.535,6.8-2.612,10.065-.262,11.272.165,22.558,0,33.834s4.992,19.758,13.273,26.754a17.09,17.09,0,0,0,3,1.469c-.881-5.618-1.634-10.449-2.39-15.28a24.054,24.054,0,0,1,3.7,5.379c1.076,1.889,2.2,3.748,3.486,5.92,4.639-7.826,4.034-12.473-1.94-17.431a27.457,27.457,0,0,1-10.23-20.632c-.336-6.831-.555-13.676-.528-20.517.017-4.038-1.577-6.885-5.756-9.561M333.518,128.171c12.826-.077,26.152,4.451,33.42-10.667a10.467,10.467,0,0,1,1.271-1.55c4.969-6.546,4.895-13.185-.487-19.361-.7-.8-3.036-1.318-3.742-.793-7.3,5.433-14.634,10.849-21.5,16.8-4.364,3.775-7.083,8.926-8.959,15.576m313.323-20.148c-.158.457-.313.914-.471,1.372,3.2,2.047,6.226,4.478,9.645,6.072,8.324,3.88,16.8,2.431,25.12-.266a41.882,41.882,0,0,0,6.135-3.133c-1.419-2.209-2.8-4.441-4.286-6.6a4.513,4.513,0,0,0-1.627-1.163c-10.186-5.473-20.8-9.5-32.63-8.506-4,.336-7.951,1.365-11.925,2.074-.023.457-.05.911-.074,1.365l16.349,6.475c-.158.36-.316.716-.474,1.072-.928.111-1.876.151-2.784.35-1.012.222-1.987.588-2.979.891M127.405,175.509c-13.686-.1-25.769-3.469-36.587-10.936a3.474,3.474,0,0,0-2.589-.393A100.87,100.87,0,0,0,76.372,167.9c-2.619,1.1-4.865,3.093-8,5.16a108.737,108.737,0,0,0,30.048,11.5,40.312,40.312,0,0,0,22.555-1.634c3.375-1.17,5.127-3.51,6.428-7.423m-21.661-77.7c-1.674-.514-3-1.039-4.367-1.325-14.123-2.942-26.834,1.257-38.9,8.058C60.4,105.72,58.8,108.04,57.5,110.155c-.434.706.454,3.211,1.288,3.547,7.02,2.861,14.325,4.777,21.98,3.839A25.763,25.763,0,0,0,98,108.043c-2.864-.615-5-1.076-7.752-1.667,4.787-4.011,11.884-2.592,15.495-8.563m551.188,57.814c-1.338-.541-2.3-.992-3.291-1.321-15.579-5.15-30.216-.255-44.8,4.458-1.153.373-1.6,2.942-2.377,4.488,1.271.4,2.569,1.2,3.8,1.109,4.434-.346,8.845-1,13.263-1.53.064.282.131.565.2.844-6.038,2.034-12.076,4.068-19.028,6.408,16.154,5.947,39.206.837,52.237-14.456m17.626,18.329.424-1.765c-2.811-1.59-5.483-3.52-8.462-4.676a50.138,50.138,0,0,0-10.119-2.542,7.72,7.72,0,0,0-5.033.75,55.948,55.948,0,0,1-21.059,8.66c-4.054.713-8.19.978-12.368,1.456-.4,3.113.689,5.14,3.5,6.152a52.784,52.784,0,0,0,7.591,2.589c16.823,3.285,31.107-4,45.53-10.624M87.083,156.118c9.521,12.8,41.469,21.7,50.657,13.659-5.591-2.064-10.97-4.054-16.349-6.041,6.105-1.819,11.988,2.78,18.107-.195-8.2-10.388-41.9-15-52.415-7.423m237.751,29.87c0-.269.1-.6-.017-.773-4.417-6.535-9.087-12.92-13.2-19.643-2.057-3.369-4.794-4.858-8.22-4.246a73.525,73.525,0,0,0-12.52,3.772c-.662.245-1.315,2.565-.894,3.345a116.314,116.314,0,0,0,7.46,12.345c6.814,9.558,15.165,11.326,27.389,5.2M3.736,61.169c4.861,6.445,8.842,12.3,13.447,17.613,3.042,3.513,11.05,3.164,14.517-.027a2.476,2.476,0,0,0,.656-2.081c-1.741-5.574-3.49-11.151-5.544-16.611-.437-1.156-2.256-2.743-3.211-2.6-6.3.931-12.533,2.283-19.865,3.708M740.53,61.1c-7.924-1.422-14.446-2.686-21.015-3.638-.766-.111-2.209,1.331-2.612,2.343-2.024,5.09-3.856,10.26-5.624,15.448a3.419,3.419,0,0,0,.188,2.817c2.841,3.113,11.82,4.347,14.513,1.378,4.972-5.476,9.255-11.582,14.55-18.349M92.22,194.026c3.012.951,5.117,1.721,7.275,2.276,13.747,3.52,26.381,1.963,36.735-8.643a5.792,5.792,0,0,0,1.153-5.06c-.978-2.4-3.19-1.5-5.14-.551a59.682,59.682,0,0,1-27.577,6.179c-4.979-.111-8.22,2.32-12.446,5.8m512.319-12.321c4.2,10.523,12.234,13.609,20.87,15.623,8.9,2.078,17.307.807,25.066-4.986-3.631-1.849-7.329-3.873-11.091-4a68.931,68.931,0,0,1-26.555-5.772c-2.148-.972-4.918-.558-8.29-.864m-69.174,40.83c-3.251-10.045-13.807-18.006-23.022-18.114-3.533-.044-5.55,1.92-5.184,5.043.844,7.154,8.361,14.392,15.633,14.463,4.061.037,8.132-.867,12.573-1.392m-328.081-1.1c5.618.713,10.311,1.506,15.041,1.859,4.767.36,8.25-2.068,10.513-6.135a40.239,40.239,0,0,0,2.689-6.27c1.607-4.592-.649-7.668-5.329-6.6-9.494,2.178-17.3,7.033-22.914,17.142m29.82-90.653c6.912-4.8,9.006-11.158,6.663-18.2-.723-2.165-1.614-2.673-3.8-1.9-6.751,2.39-8.966,6.989-6.156,13.434.945,2.172,2.1,4.259,3.295,6.667M24.337,19.727c2.125,5.087,4,9.763,6.065,14.362.467,1.042,1.466,2.427,2.384,2.568a16.178,16.178,0,0,0,6.643-.272c.484-.134.521-3.194.141-4.757a28.147,28.147,0,0,0-2.481-5.91c-2.471-4.9-5.91-6.64-12.752-5.991M90.163,189.249a26.441,26.441,0,0,0-4.337-1.509c-3.483-.6-7.853,2.024-9.447,5.527a7.706,7.706,0,0,0,1.7,9.222c2.152,2.178,5.194,2.256,6.172.178,2.024-4.307,3.849-8.7,5.914-13.417m563.453-.084c2.175,4.327,4.165,8.348,6.213,12.341,1.879,3.658,3.453,3.994,6.206.988a8.6,8.6,0,0,0,2.128-4.552c.84-7.719-5.44-11.767-14.547-8.778M506.967,128.9c7.117-9.08,5.157-15.384-5.547-18.615-3.258,8.768-1.637,14.372,5.547,18.615m116.845.551c-4.67-4.512-10.445-4.458-14.406-.047,4.562,4.283,9.171,4.37,14.406.047m-503.719,1.654H134.1c-5.07-4.818-9.867-4.794-14.006,0" transform="translate(-0.001 0.001)" fill="#fcfaf7"></path>
    </g>
  </g>
</svg>
