<svg xmlns="http://www.w3.org/2000/svg" xmlns:xlink="http://www.w3.org/1999/xlink" width="2203.862" height="417.861" viewBox="0 0 2203.862 417.861">
  <defs>
    <clipPath id="clip-path">
      <rect id="Rectangle_16" data-name="Rectangle 16" width="649.84" height="250.61" fill="rgba(84,93,78,0.3)"/>
    </clipPath>
    <clipPath id="clip-path-2">
      <rect id="Rectangle_16-2" data-name="Rectangle 16" width="540.791" height="208.555" fill="rgba(84,93,78,0.3)"/>
    </clipPath>
  </defs>
  <g id="Group_117" data-name="Group 117" transform="translate(24.565 -114.125)">
    <g id="floral_side-left" data-name="floral side-left" transform="matrix(0.978, 0.208, -0.208, 0.978, 27.54, 114.125)">
      <g id="Group_115" data-name="Group 115" transform="translate(0 0)" clip-path="url(#clip-path)">
        <path id="Path_2947" data-name="Path 2947" d="M259.048,72.8c-3.736-3.16-6.308-6.32-9.629-7.974-14.954-7.453-18.193-19.542-14.319-34.563a131.186,131.186,0,0,1,4.482-12.716c2.119-5.7,5.965-6.229,10.688-3.269,4.614,2.889,9.115,5.958,14.111,9.239,1.684-4.1,2.649-7.72,4.578-10.728,1.538-2.4,4.114-5.56,6.466-5.775C288.14,5.858,300.919,1.4,313.67,5.758c5.99,2.05,10.622,2.273,15.341-2.734,3.545-3.76,8.476-3.717,13.149-1.5,3.517,1.67,6.942,3.535,10.461,5.2,8.68,4.111,13.213,10.784,12.461,21.545,3.441-.413,6.367-.669,9.261-1.128,10.044-1.594,15.148.92,18.963,10.35,2.45,6.056,3.805,12.548,6.14,18.658,8.125,21.246,12.432,20.335,29.6,11.737,5.411-2.71,8.611-7.187,10.584-12.96a40.734,40.734,0,0,1,5.953-11.327c6.847-9.013,20.157-8.882,27.988.2-6.19,9.593-14.231,16.373-25.879,18.964-5.649,1.256-10.965,4.165-16.314,6.585-6.46,2.92-12.8,6.115-19.611,9.4a12.152,12.152,0,0,0,2.413,1.962c23.738,10.031,47.9,18.36,74.2,17.406a147.359,147.359,0,0,0,15.314-1.375c5.793-.818,9.778-3.855,12.866-9.228,9.369-16.3,22.115-27.491,42.684-25.134,2.433.278,4.927-.009,7.388.046,3.482.079,6.023-.657,6.053-4.992.028-3.864,2.777-4.295,5.642-3.26,9.018,3.26,13.063,14.7,5.973,20.677-1.206,1.016-2.034,2.48-3.725,4.6a94.979,94.979,0,0,1,9.171,4.173c2.166,1.272,3.951,3.193,5.9,4.826-2,1.826-3.775,4.024-6.051,5.386-3.218,1.924-6.805,3.228-10.576,4.954l5.338,8.44c-3.568,1.074-6.545,2.56-9.619,2.8-15.265,1.17-30.669.844-44.84-5.214-14.944-6.388-29.918-5.842-45.291-3.789a86.056,86.056,0,0,0-12.2,2.044c11.063,9.786,19.666,22.234,34.411,26.987,7.833,2.527,14.831,1.2,21.5-3.623,7.466-5.4,15.773-4.966,21.986.678,3.546,3.222,3.045,6.836-1.644,7.42-5.962.745-12.113.23-18.167-.067-6-.294-11.975-.991-19.768-1.668,1.9,2.914,2.429,4.176,3.334,5.035,13.472,12.773,32.774,15.174,50.5,5.2,11.984-6.743,23.69-6.991,35.945-1.933,1.525.629,3.495,1.9,3.885,3.263,1.934,6.767,6.9,7.241,12.595,6.851,6.638-.454,11.959-2.878,14.575-9.416a55.388,55.388,0,0,0,1.662-5.921c6.511,2.921,16.84,19.8,15.269,26.241-.68,2.788-3.331,5.7-5.879,7.286-3.76,2.341-4.116,4.68-1.932,7.973q3.738,5.634,7.668,11.141c2.607,3.636,1.779,6.033-2.425,7.334-5.208,1.614-10.428,3.185-16.566,5.054,2.12,3.651,3.686,6.423,5.329,9.15,1.513,2.512,3.108,4.977,5.031,8.04l-10.755,1.454c1.045,3.92,2.405,7.179,2.627,10.513.139,2.1-.883,5.617-2.331,6.219-4.519,1.88-6.085,4.325-4.508,9.019.365,1.085-.462,2.569-.74,3.87a22.027,22.027,0,0,1-3.889-.946c-7.8-3.45-15.6-6.925-23.332-10.522-7.394-3.438-15.047-6.494-21.949-10.751-4.661-2.875-6.533-1.492-8.394,2.5a3.036,3.036,0,0,1-.237.563q-3.137,4.138-6.289,8.262c-1.459-3.539-3.744-6.974-4.2-10.637-.829-6.693-.67-13.519-.744-20.292-.1-9.234-2.561-17.408-9.956-23.52-4.217-3.484-5.126-8.109-4.888-13.29.4-8.828-3.3-15.724-11.073-19.777-19.864-10.36-36.694-24.727-53.358-39.388-8.416-7.4-17.83-12.839-31-13.856,3,3.29,5.225,5.328,6.962,7.72,6.114,8.411,11.99,16.993,18.108,25.4a35.776,35.776,0,0,0,6.38,6.985c2.7,2.152,6.043,3.478,8.907,5.452,10.125,6.975,12.843,14.469,10.146,26.581-1.234,5.545-2.082,11.178-3.062,16.537-.776.168-.99.282-1.166.241-14.344-3.325-27.455-23.5-24.651-37.91,2.942-15.128-2.327-29.263-14.038-37.156-5.036,5.68-6.22,11.982-3.9,19.247,3.839,12.03,1.012,17.013-11.406,20.792-5.376-6.656-5.1-13.832.232-22.54,3.271-5.349,6.483-10.9,8.5-16.772.881-2.565-.252-7.4-2.257-9.117C431.38,92.639,418.136,84.155,402,81.561c-1.45-.234-4.136.053-4.345.706a9,9,0,0,0,.468,5.131c.493,1.521,1.871,2.751,2.389,4.269,1.43,4.186,1.215,7.8-4.132,8.947-.2.042-.4.112-.591.172-12.919,3.981-12.92,3.982-6.986,16.241,1.153,2.381,2.327,4.752,4.165,8.5a70.656,70.656,0,0,1-8.057.3c-2.432-.2-4.8-1.075-7.231-1.377-8.458-1.049-12.82,1.751-15.475,9.683-.453,1.352-.813,2.934-1.745,3.895-9.758,10.048-19.624,19.992-30.274,30.789-3.094-5.423-5.168-9.06-7.432-13.027l-8.877,4.9a28.414,28.414,0,0,1-2.165-4.044c-2.256-6.512-6.952-9.737-13.571-10.965-16.067-2.982-18.839-8.13-12.622-23.423,1.761-4.333,4.09-8.433,6.646-13.63-4.643-.85-8.925-1.834-13.264-2.391-10.532-1.351-21.1-2.461-31.633-3.783a28.712,28.712,0,0,1-4.99-1.557c.777-1.786,1.238-3.817,2.391-5.314,3.512-4.565,7.292-8.925,10.968-13.365L254.243,80.3c-3.686.759-7.72.8-10.993,2.4q-16.784,8.207-33.084,17.4c-5.46,3.086-7.407,8.4-4.721,14.281a89.018,89.018,0,0,0,8.268,14.228c5.82,8.242,6.289,14.232,1.024,22.62-12.172-2.465-15.911-8.4-12.043-19.975,2.509-7.507,1.5-13.964-3.788-19.826-10.234,6.818-18.032,22.347-14.732,32.836,6.107,19.412-8.226,35.211-25.725,42.225-1.248-8.618-2.9-17.038-3.561-25.535-.519-6.644,3.024-12.215,8.589-15.406,10.8-6.194,18.318-15,24.7-25.543,4.194-6.929,10.423-12.626,15.749-18.868,1.263-1.478,2.557-2.929,4.566-5.227-10.906,1.154-19.559,4.428-27,10.647-8.816,7.374-17.3,15.182-26.42,22.147-8.78,6.7-17.989,12.907-27.391,18.711-9.691,5.982-17.642,12.171-16.728,25.5.278,4.06-3.384,9.142-6.56,12.517-5.115,5.436-7.77,11.317-7.941,18.679-.206,8.816-.691,17.628-1.2,26.433a13.736,13.736,0,0,1-1.369,5.285c-1.636,3.234-3.971,3.6-5.973.383a65.59,65.59,0,0,1-3.676-7.746c-1.722-3.806-4.413-5.243-7.61-2.041-8.1,8.114-18.342,11.017-29.084,13.537-5.192,1.218-9.89,4.6-14.76,7.1-1.567.8-2.974,1.922-5.448,3.552-.306-2.723-.916-4.484-.6-6.061.823-4.119-.487-6.351-4.5-7.94-1.445-.571-2.709-3.718-2.61-5.614.186-3.589,1.417-7.122,2.359-11.333l-10.3-1.6c2.207-3.362,3.951-6.326,6-9.069,4.549-6.1,3.725-8.677-3.556-10.889C9.588,196.728,5.106,195.169,0,193.5c4.027-6.16,7.023-11.063,10.353-15.725,2.261-3.167,1.9-5.318-1.131-7.755-3.561-2.86-8.794-5.436-7.055-11.133,2.381-7.8,5.077-15.744,12.65-20.433,3.385-2.1,4.755.442,6.058,2.928,4.5,8.569,8.278,10.89,17.835,9.576,2.524-.347,5.843-2.486,6.837-4.686,1.652-3.663,4.1-4.975,7.539-6.161,10.81-3.731,21.132-3.889,31.451,1.891,4.784,2.68,10.2,4.276,15.392,6.177,12.081,4.422,31.915-2.342,39.83-14.946-7.055.4-12.9.819-18.745,1.038-6.247.234-12.592.976-18.726.186-4.884-.629-5.312-3.991-1.573-7.243,5.686-4.946,11.972-5.909,18.815-2.61a24.954,24.954,0,0,1,3.791,2.04c11.457,8.225,22.412,4.847,32.421-2.326,7.634-5.473,14.294-12.306,21.345-18.583.693-.617,1.078-1.582,2.264-3.387-18.232-1.236-35.553-6.522-52.814.682-16.1,6.721-32.853,8.578-50.062,7.06-3.086-.272-6.085-1.541-9.854-2.545,1.191-1.992,1.6-3.177,2.41-3.945,3.669-3.483,1.949-5.552-1.669-7.384-4.234-2.147-8.4-4.429-12.6-6.654q.077-1.1.152-2.191l15.522-8.383c-1.319-1.585-2.133-2.722-3.1-3.7-6.562-6.627-4.461-16.7,4.259-20.54,3.612-1.59,6.307-.933,6.624,3.261.3,4.011,2.48,4.645,5.739,4.487,2.252-.11,4.55.247,6.767-.054,18.888-2.57,31.827,6.473,41.912,21.235,1.85,2.707,3.4,5.846,5.85,7.859,2.868,2.36,6.4,4.783,9.936,5.326,33.191,5.114,63.532-5.638,93.62-17.491.264-.1.347-.665.611-1.212-6.314-2.116-12.993-3.455-18.769-6.506-8.144-4.3-16.02-8.449-25.267-10.419-9.163-1.95-15.146-9.291-20.641-16.532,10.4-11.976,26.358-9.02,31.94,5.644,7.252,19.053,28.205,29.135,49.13,22.462M355.67,47.2l-.654-.418c2.425-7.065,5.6-13.992,6.95-21.256.652-3.5-1-8.925-3.6-11.22-4.81-4.243-10.879-7.279-16.806-9.978C334.646,1.18,330.635,3.366,327.033,10c-4.838,8.915-2.908,17.868-.848,26.846,1.28,5.582,3.031,11.056,4.569,16.579l2.36-.181q1.694-10.077,3.391-20.155l1.8.3-2.244,22.876q1,.386,2,.773l11.427-7.972.5.723c-2.636,3.694-5.271,7.387-8.709,12.2,12.278.678,19.059-7.6,27.453-12l1.193,1.916q-11.868,8.245-23.738,16.487l.768,1.9,55.657,2.721c-4.149-12.043-7.891-23.722-12.242-35.169-1.951-5.132-5.615-9.535-11.961-8.856-8.274.887-15.537,3.75-19.059,12.336-.864,2.1-2.437,3.92-3.684,5.867m-39.908,64.882-1.98-.474c1.782-7.572,3.9-15.088,5.155-22.747.405-2.47-1.459-5.313-2.285-7.985-1.9,1.12-4.562,1.773-5.573,3.434C302.9,97.757,295,111.377,287.1,124.989a16.392,16.392,0,0,0-1.582,4.627c-1.42,6.312.822,10.273,7.135,11.9,9.126,2.348,18.544,4,23.415,13.972,5.458-7.772,10.463-14.505,14.973-21.552a12.928,12.928,0,0,0,2.091-7.956c-1.369-10.126-3.194-20.2-5.231-30.217-.4-1.99-2.488-3.637-3.8-5.444-1.317,1.618-3.24,3.038-3.835,4.888-1.78,5.537-3.041,11.241-4.5,16.88m71.908,7.5c-7.27-12.554-14.253-25.654-22.292-38.07-4.343-6.71-12-9.079-19.941-8.987-1.917.022-4.718,1.355-5.449,2.881-.64,1.338.533,4.263,1.809,5.667,3.8,4.178,8.038,7.953,12.105,11.885l-.8,1.094c-3.2-1.677-6.408-3.352-10.485-5.487,2.114,5.049,3.8,9.071,5.482,13.092l-1.14.5c-3.772-5.7-7.544-11.409-12.383-18.728-1.829,3.777-3.962,6.049-3.7,8a286,286,0,0,0,5.113,28.976c1.6,6.626,6.136,8.71,12.723,7.338,12.34-2.57,24.675-5.163,38.959-8.154M303.1,32.5l2.24-1.563c4.5,6.63,8.918,13.322,13.568,19.844,1.042,1.462,2.908,2.337,4.393,3.482.453-1.643,1.409-3.326,1.276-4.92q-1.5-18.069-3.47-36.1c-.14-1.273-1.495-3.289-2.521-3.447a183.434,183.434,0,0,0-21.735-2.527c-4.845-.164-9.724,1.348-14.617,1.782-11.271,1-14.279,5.116-11.46,16.13.508,1.98,1.311,3.895,1.7,5.895,1.277,6.541,5.291,10.034,11.529,12.191,7.52,2.6,14.617,6.408,22.1,9.15,2.224.815,5.122-.2,7.712-.379-.588-2.333-.673-4.97-1.866-6.936-2.655-4.38-5.863-8.425-8.848-12.606M85.149,172l-1.658-.615L62.37,185.493c5.229-8.183,15.417-10.835,19.459-20.772a164.273,164.273,0,0,0-29.488.875c-9.974,1.253-16.719,7.287-20.347,16.646-3.256,8.4-6.313,16.877-9.583,25.272-1.775,4.554-.247,5.774,4.178,4.66,8.34-2.1,16.793-3.818,25.018-6.3C65.956,201.552,77.266,193.142,84,179.445c1.057-2.151.8-4.946,1.153-7.444M266.765,50.719c12.22-2.215,22.407,5.3,33.2,1.507-5.442-2.759-11.288-4.01-16.546-6.5-4.424-2.1-9.71-4.779-11.9-8.713-5.623-10.084-14.472-15.368-24.343-19.643-1.252-.541-4.639.511-4.784,1.26-1.81,9.33-4.145,18.73-4.255,28.135-.046,3.958,4.136,8.8,7.646,11.763,4.95,4.176,10.994,7.1,16.724,10.279a8.542,8.542,0,0,0,5.049.549c9.03-1.34,18-3.188,27.056-4.221,5.548-.632,11.226-.117,16.846-.117q.1-.96.2-1.922c-12.56-10.193-29.362-6.625-44.887-12.374M628.128,212.3l1.41-1.654c-4.219-11.034-8.2-22.17-12.816-33.035a16.219,16.219,0,0,0-6.836-7.59c-13.264-6.841-27.365-7.494-41.754-4.2-.187.042-.244.653-.466,1.3,7.487,5.686,15.067,11.443,22.646,17.2l-1.242,1.665c-4.428-3.122-8.726-6.452-13.331-9.284-2.728-1.678-5.94-2.569-8.933-3.814.838,3.335.945,7.106,2.628,9.939,13.366,22.5,36.359,25.369,58.693,29.473M309.675,77.682h-8.222l6.3-5.638c-17.431-13.326-52.838,3.079-58.969,26.106,12.377,2.174,24.766,4.576,37.242,6.38,3.007.435,7.462-.02,9.25-1.934a59.142,59.142,0,0,0,14.4-24.915M569.108,192.47c0,5.985-.7,10.679.121,15.088,3.6,19.264,28.145,34.645,50.731,31.731-3.3-7.6-6.217-15.228-9.952-22.432-1.413-2.726-4.409-5.037-7.214-6.561-8.926-4.843-18.112-9.2-27.166-13.812-1.756-.893-3.371-2.061-6.52-4.013M80.3,195.3c-12.162,5.576-23.448,10.74-34.718,15.94-.895.413-2.081.892-2.438,1.664-4.076,8.761-8.016,17.584-11.993,26.392l1.354,1.582c10.176-2.856,20.567-5.127,30.463-8.751,8.169-2.994,13.735-9.594,17.214-17.619,2.9-6.686,2.932-13.4.119-19.209M636.85,141.72c-5.083,4.762-8.08,9.58-12.22,10.953-5.562,1.846-12.01.983-18.071,1.377-3.214.21-6.574.148-9.552,1.148-1.389.466-2.31,3.09-2.8,4.909-.119.437,2.252,1.728,3.606,2.347,6.458,2.95,12.963,5.8,19.447,8.7,1.286.574,2.818,1.983,3.791,1.661,7.73-2.561,15.422-5.283,22.942-8.392,1.282-.53,2.815-3.674,2.327-4.729-2.845-6.144-6.259-12.026-9.469-17.974m-620.364.7-2.191-.292c-3.057,5.392-6.04,10.827-9.2,16.16-1.872,3.164-.588,5.246,2.251,6.329,6.474,2.474,12.992,4.92,19.665,6.743,2.393.653,5.477-.013,7.908-.951,6.245-2.407,12.311-5.279,18.422-8.024,1.387-.623,2.668-1.484,4-2.236-.993-1.686-1.669-4.433-3.045-4.847a26.813,26.813,0,0,0-10.1-.984c-11.385,1.114-22.052.935-27.707-11.9m160.569-2.38c-19.088,10.353-24.931,28.894-13.477,41.731,19.73-13.738,25.106-30.039,13.477-41.731M488.087,181.58c8.341-12.7,5.578-29.4-5.828-37.1-8.388-5.661-13.211-3.454-14.289,6.607a17.394,17.394,0,0,0,.244,4.25c1.773,12.449,9.8,20.056,19.872,26.242M100.476,161.491l-1.525-.652c-5.875,6.461-11.459,13.584-12.071,22.516-.922,13.436-.45,26.977-.3,40.471.017,1.512,1.8,3.005,2.769,4.508,1.3-1.559,3.486-3,3.719-4.7a85.5,85.5,0,0,0,.42-13.5c-.253-11.031,1.4-21.045,10.724-28.745,4.784-3.953,4.329-9.114-.117-14.415-1.757,3.264-3.387,6.291-5.018,9.317l-.868-.384,2.264-14.41m450.542.7c.575,5.288.982,9.031,1.388,12.775l-.83.1-5.045-8.519c-3.442,7.387-3.234,12.579,2.755,17.327,5.783,4.583,7.738,11.457,8.065,18.639.261,5.735-.228,11.522.3,17.222.31,3.358,1.955,6.592,3,9.882l2.395-.193c.72-3.052,2-6.091,2.06-9.155q.311-16.923-.09-33.855c-.229-9.864-5.284-17.162-14-24.226M358.255,130.426a18.457,18.457,0,0,0-2.771-.475c-4.492,0-9.1-.522-13.44.306-2.984.569-5.908,2.7-8.293,4.775-2.1,1.826-3.474,4.507-5.049,6.89-4.669,7.061-3.984,12.707,2.224,19.04,13.679-6.444,26.114-20.108,27.329-30.535m199.165,27.1c14.394,7.284,39.56-.778,42.949-12.6-12.368-8.077-30.1-6.221-34.521,4.242,1.549.509,3.074,1.009,5.086,1.672l-13.514,6.688M80.237,151.1l5.694-2.544c-8.225-9.218-17.369-10.914-30.7-6.153-5.328,1.9-6.411,5.043-1.637,7.991a75.526,75.526,0,0,0,21.6,9.309c5.932,1.426,12.55-.005,18.863-.168l.23-2.405L80.237,151.1m-2.8-46.81a9.866,9.866,0,0,0,1.913,1.3c13.75,5.225,26.582.574,39.341-3.949,1.222-.433,1.728-2.884,3.3-5.726l-15.232,1.633c-.046-.2-.091-.393-.137-.59l15.8-6.159c-16.987-5.211-35.719.763-44.991,13.489m450.392-8.1c9.584,11.411,36.947,15.145,45.889,7.429-11.583-13.085-33.184-19.381-43.1-12.184l12.906,5.357q-.105.39-.208.782l-15.481-1.384m11.134-12.48c10.183,3.55,19.209,6.016,27.618,9.836a19,19,0,0,0,23.206-6.357c-6.307-2.662-12.339-5.43-18.532-7.77-8.224-3.1-16.721-4.2-25.119-.88-2.7,1.069-4.875,3.467-7.173,5.171M61.808,88.06a19.415,19.415,0,0,0,23.287,5.256c6.292-3.108,13.282-4.831,20.017-7a40.253,40.253,0,0,1,6.213-.978c-5.126-13.985-33.192-8.96-49.517,2.722M366.454,76.481c4.161,6.541,8.206,13.126,12.489,19.553,2.878,4.318,9.679,4.372,16.047.644,5.773-3.38.467-6.2-.441-9.1-.657-2.1-2.1-3.977-3.325-5.87-6.139-9.514-13.775-11.253-24.771-5.226M4.283,192.853c6.374,1.273,11.523,2.516,16.745,3.185,1.216.156,3.416-1.347,3.907-2.585,2.023-5.1,3.562-10.389,5.246-15.508-6.907-4.729-11.1-5.346-14.464-1.29-3.992,4.812-7.268,10.217-11.434,16.2M646.7,192.69c-3.8-5.623-6.87-10.4-10.179-15-3.215-4.473-7.429-4.085-12.026-2.244-5.041,2.019-1.494,5.5-1.627,8.328a9.778,9.778,0,0,0,.79,2.932c2.845,9.712,3.961,10.387,13.625,8.2,2.757-.625,5.506-1.29,9.416-2.21M122.285,80.276c-5.333-15.214-26.91-20.358-40.673-9.259l40.673,9.259M570.022,69.793c-13.36-7.881-30.284-5.6-38.425,4.353-1.034,1.264-.838,3.533-1.212,5.337,1.62.07,3.317.488,4.845.149,8.107-1.8,16.206-3.664,24.234-5.783,3.3-.869,6.409-2.434,10.559-4.056M183.263,42.979c4,8.553,9.249,13.824,16.02,15.228,2.293.475,5.566.079,7.167-1.321,1.082-.946.657-4.61-.185-6.594-4.081-9.621-12.229-12.178-23-7.313m285.554.935c-14.3-5.482-21.223-2.689-24.263,9.011-1.174,4.516.749,6.939,5.386,5.826a27.473,27.473,0,0,0,18.877-14.838M629.14,231.743c-2.322-5.565-3.922-10.356-6.359-14.675-.751-1.33-3.759-1.653-5.787-1.83-.583-.051-1.933,2.017-1.938,3.119-.03,6.884,5.475,12.639,14.084,13.386m-190.646-85.2c10.068-2.011,11.659-9.142,4.267-17.9-6.359,4.817-7.528,9.4-4.267,17.9M34.9,214.638c-7.7,1.848-11.222,7.357-11.447,17.427,9.46-1.846,12.471-6.292,11.447-17.427M571.749,72.722c4.21,3.376,7.582,1.837,10.387-1.249,2.755-3.032,3.036-6.688.466-9.97-1.689-2.157-4.242-4.044-6.18-.294-1.827,3.536-3.033,7.394-4.673,11.514M72.934,58.6c-6.047,3.424-7.491,7.2-4.7,11.709S74.9,75.6,79.858,72.8L72.934,58.6m134.844,71.215c-5.956,8.972-3.967,14.746,5.221,16.344,2.089-9.341,1.212-12.216-5.221-16.344m-101.2-2.342q0,.978-.009,1.955c5.469,3.876,7.449,3.759,12.546-1.955Z" transform="translate(0 0.001)" fill="rgba(84,93,78,0.3)"/>
      </g>
    </g>
    <g id="floral_side-right" data-name="floral side-right" transform="matrix(0.934, -0.358, 0.358, 0.934, 1339.743, 290.125)">
      <g id="Group_115-2" data-name="Group 115" transform="translate(225.778 137.181)" clip-path="url(#clip-path-2)">
        <path id="Path_2947-2" data-name="Path 2947" d="M215.578,147.97c-3.109,2.63-5.249,5.259-8.013,6.636-12.444,6.2-15.14,16.263-11.916,28.763a109.179,109.179,0,0,0,3.73,10.582c1.763,4.748,4.964,5.183,8.895,2.721,3.84-2.4,7.586-4.958,11.743-7.689,1.4,3.408,2.2,6.424,3.81,8.927,1.28,2,3.423,4.627,5.381,4.806,10.581.963,21.216,4.676,31.827,1.046,4.985-1.706,8.84-1.892,12.767,2.275,2.95,3.129,7.053,3.093,10.942,1.246,2.927-1.39,5.777-2.941,8.706-4.329,7.223-3.421,11-8.975,10.37-17.93,2.863.344,5.3.557,7.707.939,8.359,1.326,12.606-.765,15.781-8.613,2.039-5.04,3.167-10.443,5.11-15.527,6.761-17.68,10.346-16.923,24.634-9.767,4.5,2.255,7.166,5.981,8.808,10.785a33.9,33.9,0,0,0,4.954,9.426c5.7,7.5,16.775,7.391,23.291-.164-5.152-7.983-11.843-13.626-21.536-15.782-4.7-1.045-9.125-3.466-13.576-5.48-5.376-2.43-10.648-5.089-16.32-7.82a10.112,10.112,0,0,1,2.008-1.633c19.755-8.348,39.859-15.279,61.746-14.485a122.627,122.627,0,0,1,12.744,1.144c4.821.681,8.137,3.208,10.707,7.679,7.8,13.564,18.4,22.878,35.521,20.916,2.025-.232,4.1.008,6.149-.038,2.9-.066,5.012.547,5.037,4.155.023,3.216,2.311,3.574,4.695,2.713,7.5-2.713,10.871-12.237,4.97-17.207a29.915,29.915,0,0,1-3.1-3.829,79.046,79.046,0,0,0,7.632-3.473,38.913,38.913,0,0,0,4.913-4.016c-1.663-1.52-3.141-3.349-5.035-4.482a91.457,91.457,0,0,0-8.8-4.123l4.442-7.024c-2.969-.894-5.447-2.13-8.005-2.327-12.7-.974-25.522-.7-37.315,4.339-12.437,5.316-24.9,4.862-37.691,3.153a71.618,71.618,0,0,1-10.151-1.7c9.206-8.144,16.366-18.5,28.637-22.459,6.519-2.1,12.342-1,17.891,3.015,6.213,4.5,13.126,4.133,18.3-.564,2.951-2.681,2.534-5.689-1.368-6.175-4.962-.62-10.08-.191-15.119.056-4.99.245-9.965.825-16.451,1.388,1.584-2.425,2.021-3.475,2.775-4.19,11.211-10.629,27.274-12.628,42.027-4.327,9.973,5.612,19.715,5.818,29.913,1.609,1.269-.524,2.909-1.579,3.234-2.715,1.61-5.631,5.745-6.026,10.481-5.7,5.524.378,9.952,2.395,12.129,7.836a46.089,46.089,0,0,1,1.383,4.928c5.418-2.431,14.014-16.475,12.707-21.837-.565-2.32-2.772-4.743-4.893-6.063-3.129-1.948-3.426-3.894-1.607-6.635q3.111-4.689,6.381-9.271c2.169-3.026,1.48-5.021-2.018-6.1-4.334-1.343-8.678-2.65-13.786-4.206,1.764-3.038,3.068-5.345,4.435-7.614,1.259-2.091,2.587-4.142,4.187-6.691l-8.951-1.21c.87-3.262,2-5.974,2.186-8.749.115-1.744-.735-4.674-1.94-5.176-3.76-1.565-5.064-3.6-3.752-7.506.3-.9-.384-2.138-.616-3.22a18.332,18.332,0,0,0-3.237.787c-6.493,2.871-12.979,5.763-19.416,8.756-6.153,2.861-12.522,5.4-18.266,8.947-3.879,2.392-5.437,1.242-6.985-2.078a2.53,2.53,0,0,0-.2-.469q-2.61-3.444-5.234-6.875c-1.214,2.945-3.116,5.8-3.493,8.852a151.172,151.172,0,0,0-.619,16.887c-.086,7.685-2.131,14.486-8.285,19.573-3.509,2.9-4.266,6.748-4.068,11.06.337,7.346-2.745,13.085-9.215,16.458-16.531,8.621-30.536,20.578-44.4,32.778-7,6.162-14.838,10.684-25.8,11.531,2.493-2.738,4.348-4.434,5.794-6.424,5.088-7,9.978-14.142,15.069-21.138a29.771,29.771,0,0,1,5.31-5.813c2.249-1.791,5.029-2.894,7.412-4.537,8.426-5.8,10.688-12.041,8.443-22.121-1.027-4.615-1.733-9.3-2.548-13.762-.646-.139-.823-.235-.971-.2-11.937,2.767-22.847,19.552-20.514,31.549,2.448,12.589-1.937,24.353-11.682,30.921-4.191-4.727-5.176-9.972-3.246-16.017,3.2-10.011.842-14.158-9.492-17.3-4.474,5.539-4.24,11.511.193,18.758a72.508,72.508,0,0,1,7.074,13.957c.733,2.134-.21,6.16-1.879,7.587-10.053,8.6-21.074,15.657-34.5,17.815-1.207.194-3.442-.044-3.616-.587a7.486,7.486,0,0,1,.39-4.27c.411-1.266,1.557-2.289,1.988-3.553,1.19-3.484,1.011-6.493-3.439-7.445-.167-.035-.329-.093-.492-.143-10.751-3.313-10.752-3.314-5.814-13.516.96-1.982,1.937-3.955,3.466-7.074a58.8,58.8,0,0,0-6.705-.247c-2.024.164-4,.895-6.018,1.146-7.039.873-10.669-1.457-12.878-8.058a8.53,8.53,0,0,0-1.453-3.241c-8.121-8.362-16.331-16.637-25.194-25.622-2.575,4.513-4.3,7.54-6.185,10.841L261.2,74.834a23.65,23.65,0,0,0-1.8,3.365c-1.878,5.42-5.785,8.1-11.294,9.125-13.371,2.481-15.678,6.766-10.5,19.492,1.466,3.606,3.4,7.018,5.53,11.343-3.864.707-7.428,1.526-11.038,1.99-8.765,1.124-17.556,2.048-26.325,3.148a23.894,23.894,0,0,0-4.152,1.3c.647,1.487,1.03,3.176,1.989,4.423,2.923,3.8,6.068,7.428,9.127,11.122l-1.158,1.593c-3.068-.631-6.424-.669-9.148-2q-13.968-6.83-27.532-14.477c-4.543-2.568-6.164-6.992-3.928-11.884a74.083,74.083,0,0,1,6.881-11.84c4.843-6.859,5.234-11.844.852-18.825-10.13,2.051-13.241,6.994-10.022,16.623,2.088,6.247,1.245,11.621-3.152,16.5-8.517-5.674-15.006-18.6-12.26-27.326,5.082-16.154-6.846-29.3-21.408-35.139-1.039,7.172-2.411,14.179-2.963,21.25-.432,5.529,2.517,10.165,7.148,12.821,8.991,5.155,15.244,12.485,20.555,21.256,3.49,5.766,8.674,10.507,13.106,15.7,1.051,1.23,2.128,2.437,3.8,4.35-9.076-.961-16.277-3.685-22.465-8.861-7.337-6.136-14.393-12.634-21.987-18.43-7.307-5.578-14.971-10.741-22.795-15.571C98.195,80.9,91.577,75.749,92.338,64.659c.232-3.378-2.816-7.608-5.459-10.416A22.377,22.377,0,0,1,80.271,38.7c-.171-7.337-.575-14.67-1-22a11.431,11.431,0,0,0-1.14-4.4c-1.361-2.691-3.3-3-4.97-.318A54.582,54.582,0,0,0,70.1,18.429c-1.433,3.168-3.673,4.363-6.333,1.7C57.026,13.375,48.5,10.96,39.564,8.863c-4.32-1.013-8.23-3.826-12.283-5.907-1.3-.67-2.475-1.6-4.533-2.956-.255,2.266-.762,3.732-.5,5.044.685,3.428-.405,5.286-3.744,6.608-1.2.475-2.254,3.094-2.172,4.672.155,2.986,1.179,5.927,1.963,9.431L9.724,27.083c1.837,2.8,3.288,5.265,4.99,7.547,3.786,5.078,3.1,7.221-2.959,9.061C7.979,44.84,4.249,46.136,0,47.53c3.351,5.126,5.844,9.206,8.616,13.087,1.882,2.635,1.582,4.426-.941,6.454C4.711,69.45.357,71.593,1.8,76.334c1.982,6.491,4.225,13.1,10.527,17,2.817,1.745,3.957-.368,5.042-2.436,3.741-7.131,6.889-9.063,14.842-7.969,2.1.289,4.863,2.069,5.69,3.9,1.375,3.048,3.415,4.14,6.274,5.127,9,3.105,17.586,3.237,26.173-1.573,3.981-2.23,8.485-3.558,12.809-5.141,10.054-3.68,26.56,1.949,33.146,12.438-5.871-.333-10.733-.682-15.6-.864-5.2-.194-10.479-.812-15.583-.155-4.065.524-4.42,3.321-1.309,6.028,4.732,4.116,9.963,4.918,15.658,2.172a20.768,20.768,0,0,0,3.154-1.7c9.535-6.845,18.651-4.034,26.98,1.936,6.353,4.554,11.9,10.241,17.763,15.465a17.488,17.488,0,0,1,1.884,2.818c-15.173,1.029-29.587,5.427-43.951-.568-13.4-5.593-27.34-7.139-41.661-5.875-2.568.226-5.064,1.282-8.2,2.118.991,1.658,1.334,2.644,2.006,3.283,3.053,2.9,1.622,4.62-1.389,6.145-3.523,1.786-6.991,3.686-10.482,5.537q.064.912.126,1.824l12.917,6.976c-1.1,1.319-1.775,2.265-2.583,3.081-5.461,5.515-3.712,13.9,3.544,17.093,3.006,1.323,5.248.776,5.513-2.714.253-3.338,2.064-3.866,4.776-3.734,1.874.091,3.787-.205,5.631.045,15.718,2.139,26.486-5.387,34.879-17.672,1.539-2.253,2.831-4.865,4.868-6.541,2.387-1.964,5.329-3.98,8.269-4.432,27.621-4.256,52.871,4.692,77.91,14.556.22.087.289.553.508,1.009-5.255,1.761-10.813,2.876-15.62,5.414-6.778,3.58-13.331,7.031-21.027,8.671-7.625,1.623-12.6,7.732-17.178,13.757,8.655,9.966,21.935,7.507,26.58-4.7,6.035-15.856,23.472-24.246,40.886-18.693m80.408,21.3-.545.348c2.018,5.88,4.659,11.644,5.784,17.689.542,2.915-.83,7.428-2.994,9.337-4,3.531-9.054,6.057-13.986,8.3-5.756,2.621-9.093.8-12.091-4.72-4.026-7.419-2.42-14.87-.706-22.341,1.065-4.645,2.522-9.2,3.8-13.8l1.964.15q1.41,8.386,2.822,16.772l1.5-.253-1.868-19.038q.833-.321,1.666-.643l9.509,6.634.415-.6-7.248-10.156c10.218-.564,15.861,6.329,22.846,9.983l.993-1.594q-9.877-6.861-19.754-13.72l.639-1.578,46.317-2.264c-3.453,10.022-6.567,19.741-10.188,29.267-1.624,4.271-4.673,7.935-9.954,7.37-6.885-.738-12.93-3.12-15.861-10.266a32.731,32.731,0,0,0-3.065-4.883m-33.211-53.994-1.648.394c1.483,6.3,3.246,12.556,4.29,18.93.337,2.055-1.214,4.421-1.9,6.645-1.579-.932-3.8-1.476-4.638-2.858-6.808-11.188-13.379-22.522-19.955-33.85a13.642,13.642,0,0,1-1.316-3.851c-1.181-5.253.684-8.549,5.938-9.9,7.595-1.954,15.432-3.33,19.485-11.627,4.542,6.468,8.707,12.071,12.461,17.935a10.758,10.758,0,0,1,1.74,6.621c-1.14,8.427-2.658,16.811-4.353,25.147-.337,1.656-2.071,3.027-3.161,4.53-1.1-1.346-2.7-2.529-3.192-4.068-1.481-4.608-2.531-9.355-3.748-14.047m59.841-6.245c-6.05,10.447-11.861,21.349-18.551,31.682-3.614,5.584-9.987,7.555-16.595,7.479-1.6-.019-3.926-1.128-4.535-2.4-.533-1.113.444-3.548,1.505-4.716,3.16-3.477,6.689-6.619,10.074-9.89l-.666-.91-8.725,4.566c1.759-4.2,3.161-7.548,4.562-10.9l-.949-.413L278.43,139.125c-1.522-3.143-3.3-5.034-3.079-6.656a238.016,238.016,0,0,1,4.255-24.113c1.331-5.514,5.107-7.249,10.588-6.107,10.269,2.139,20.534,4.3,32.422,6.785m-70.377,72.475,1.864,1.3c3.746-5.517,7.421-11.086,11.291-16.514.867-1.217,2.42-1.944,3.656-2.9.377,1.367,1.173,2.768,1.062,4.094q-1.252,15.037-2.888,30.039c-.116,1.06-1.244,2.737-2.1,2.869a152.656,152.656,0,0,1-18.088,2.1c-4.032.136-8.092-1.122-12.164-1.483-9.38-.832-11.883-4.258-9.537-13.424.423-1.648,1.091-3.241,1.416-4.906,1.063-5.444,4.4-8.35,9.594-10.145,6.258-2.163,12.164-5.333,18.389-7.614,1.851-.679,4.262.168,6.418.315-.49,1.941-.56,4.136-1.553,5.772-2.209,3.645-4.879,7.012-7.363,10.491M70.86,65.416l-1.38.512L51.9,54.189C56.255,61,64.733,63.205,68.1,71.475a136.706,136.706,0,0,1-24.539-.728c-8.3-1.043-13.913-6.064-16.933-13.853-2.71-6.991-5.254-14.045-7.974-21.031-1.477-3.79-.205-4.8,3.477-3.878,6.94,1.748,13.975,3.177,20.819,5.241,11.94,3.6,21.352,10.6,26.953,22,.879,1.79.668,4.116.96,6.195M222,166.346c10.169,1.843,18.647-4.409,27.625-1.254-4.529,2.3-9.394,3.337-13.77,5.412-3.681,1.746-8.081,3.977-9.906,7.251-4.679,8.392-12.044,12.789-20.258,16.346-1.042.45-3.86-.425-3.981-1.049-1.506-7.765-3.45-15.587-3.541-23.414-.038-3.294,3.442-7.326,6.363-9.789,4.12-3.475,9.149-5.907,13.918-8.554a7.108,7.108,0,0,1,4.2-.457c7.514,1.116,14.976,2.653,22.516,3.512,4.617.526,9.343.1,14.019.1q.084.8.169,1.6c-10.453,8.483-24.435,5.513-37.355,10.3M522.723,31.879l1.174,1.377c-3.511,9.182-6.823,18.45-10.666,27.492a13.5,13.5,0,0,1-5.689,6.317C496.5,72.757,484.77,73.3,472.8,70.561c-.156-.035-.2-.543-.388-1.085,6.231-4.732,12.539-9.523,18.845-14.314l-1.033-1.386c-3.685,2.6-7.262,5.369-11.094,7.726-2.271,1.4-4.943,2.138-7.434,3.174.7-2.776.786-5.914,2.187-8.271C485,37.682,504.136,35.295,522.723,31.879M257.708,143.908h-6.842l5.243,4.692c-14.506,11.089-43.971-2.563-49.073-21.725,10.3-1.809,20.61-3.808,30.992-5.31,2.5-.362,6.21.016,7.7,1.61a49.218,49.218,0,0,1,11.983,20.734m215.9-95.526c0-4.98-.584-8.887.1-12.556C476.7,19.8,497.129,7,515.925,9.42c-2.748,6.324-5.174,12.673-8.282,18.668-1.176,2.268-3.669,4.192-6,5.46-7.428,4.031-15.073,7.659-22.607,11.495-1.461.743-2.805,1.715-5.426,3.34M66.823,46.025C56.7,41.385,47.31,37.088,37.931,32.76c-.744-.344-1.731-.742-2.029-1.385-3.392-7.29-6.671-14.634-9.98-21.964L27.048,8.1c8.469,2.377,17.116,4.267,25.351,7.283,6.8,2.491,11.43,7.984,14.325,14.662,2.413,5.564,2.44,11.153.1,15.985M529.981,90.617c-4.23-3.963-6.724-7.972-10.169-9.115-4.629-1.536-9.995-.818-15.039-1.146-2.675-.175-5.471-.123-7.949-.955-1.156-.388-1.923-2.571-2.331-4.085-.1-.363,1.874-1.438,3-1.953,5.375-2.455,10.787-4.828,16.184-7.239,1.07-.478,2.345-1.65,3.154-1.382,6.433,2.131,12.834,4.4,19.092,6.984,1.067.441,2.343,3.058,1.937,3.935-2.367,5.113-5.209,10.008-7.88,14.957M13.72,90.035l-1.824.243C9.352,85.79,6.87,81.268,4.243,76.83c-1.558-2.633-.49-4.365,1.873-5.267C11.5,69.5,16.927,67.468,22.481,65.951c1.992-.544,4.558.011,6.581.792,5.2,2,10.245,4.393,15.331,6.678,1.154.518,2.22,1.235,3.327,1.861-.827,1.4-1.389,3.689-2.534,4.034a22.314,22.314,0,0,1-8.408.819c-9.474-.927-18.351-.778-23.057,9.9m133.624,1.981C131.459,83.4,126.6,67.97,136.128,57.287c16.419,11.433,20.893,25,11.216,34.728m258.838-34.57c6.941,10.57,4.642,24.468-4.85,30.873-6.981,4.711-10.994,2.874-11.891-5.5a14.474,14.474,0,0,1,.2-3.537c1.476-10.36,8.152-16.69,16.537-21.838M83.615,74.163l-1.269.542C77.457,69.328,72.81,63.4,72.3,55.967c-.767-11.182-.374-22.45-.247-33.68.014-1.258,1.5-2.5,2.3-3.752,1.08,1.3,2.9,2.495,3.1,3.913A71.151,71.151,0,0,1,77.8,33.688c-.211,9.18,1.167,17.514,8.924,23.921,3.981,3.289,3.6,7.585-.1,12-1.462-2.716-2.818-5.235-4.176-7.754l-.722.32,1.884,11.992m374.937-.579c.479-4.4.817-7.516,1.155-10.632l-.691-.086-4.2,7.09c-2.865-6.147-2.691-10.468,2.293-14.419,4.812-3.814,6.44-9.535,6.712-15.511.217-4.773-.19-9.588.249-14.332.258-2.794,1.627-5.485,2.5-8.224l1.993.16c.6,2.54,1.667,5.069,1.714,7.619q.259,14.083-.075,28.174c-.191,8.208-4.4,14.282-11.647,20.161M298.136,100.015a15.36,15.36,0,0,1-2.306.4c-3.739,0-7.572.435-11.185-.255-2.484-.473-4.917-2.243-6.9-3.974-1.744-1.52-2.891-3.751-4.2-5.734-3.886-5.876-3.316-10.574,1.851-15.845,11.384,5.362,21.732,16.734,22.743,25.411M463.88,77.464c11.979-6.062,32.921.648,35.742,10.487-10.292,6.722-25.049,5.177-28.728-3.53l4.233-1.391L463.88,77.464M66.772,82.811l4.739,2.117c-6.845,7.671-14.455,9.082-25.548,5.121-4.434-1.583-5.335-4.2-1.363-6.65a62.852,62.852,0,0,1,17.971-7.747c4.936-1.187,10.444,0,15.7.139l.191,2L66.772,82.811m-2.329,38.954a8.209,8.209,0,0,1,1.592-1.083c11.443-4.348,22.122-.478,32.739,3.286,1.017.36,1.438,2.4,2.748,4.765l-12.676-1.359c-.038.164-.076.327-.114.491l13.152,5.125c-14.136,4.337-29.725-.635-37.441-11.226M439.256,128.5c7.976-9.5,30.747-12.6,38.188-6.183-9.639,10.89-27.616,16.129-35.871,10.14L452.313,128q-.087-.324-.174-.651L439.256,128.5m9.266,10.386c8.474-2.955,15.985-5.007,22.984-8.185a15.816,15.816,0,0,1,19.312,5.29c-5.248,2.216-10.268,4.519-15.422,6.466-6.844,2.583-13.915,3.5-20.9.732-2.248-.889-4.057-2.885-5.97-4.3M51.436,135.272A16.157,16.157,0,0,1,70.815,130.9c5.236,2.587,11.053,4.021,16.658,5.826a33.5,33.5,0,0,0,5.17.814c-4.266,11.638-27.622,7.456-41.207-2.265m253.524,9.636c3.463-5.444,6.829-10.924,10.393-16.272,2.395-3.594,8.055-3.639,13.354-.536,4.8,2.813.389,5.158-.367,7.574a21.386,21.386,0,0,1-2.767,4.885c-5.109,7.917-11.464,9.365-20.614,4.349M3.564,48.064c5.3-1.06,9.59-2.094,13.935-2.65a4.137,4.137,0,0,1,3.251,2.151c1.683,4.243,2.964,8.645,4.365,12.905-5.748,3.935-9.236,4.449-12.037,1.074-3.322-4-6.049-8.5-9.515-13.48m534.61.135c-3.161,4.679-5.717,8.653-8.471,12.484-2.676,3.722-6.183,3.4-10.008,1.868-4.2-1.68-1.243-4.578-1.354-6.93a8.138,8.138,0,0,1,.658-2.44c2.367-8.082,3.3-8.644,11.339-6.821,2.295.52,4.582,1.074,7.836,1.839m-436.41,93.55c-4.438,12.661-22.394,16.942-33.848,7.705l33.848-7.705m372.6,8.723c-11.118,6.558-25.2,4.658-31.977-3.622-.861-1.052-.7-2.94-1.009-4.441a16.112,16.112,0,0,1,4.032-.124c6.747,1.5,13.486,3.049,20.167,4.812a89.135,89.135,0,0,1,8.787,3.375M152.51,172.788c3.33-7.118,7.7-11.5,13.331-12.673,1.908-.4,4.632-.066,5.964,1.1.9.787.547,3.836-.154,5.488-3.4,8.006-10.177,10.134-19.142,6.086m237.636-.778c-11.9,4.562-17.662,2.238-20.191-7.5-.977-3.758.624-5.774,4.482-4.849a22.863,22.863,0,0,1,15.71,12.348M523.565,15.7c-1.932,4.631-3.264,8.618-5.292,12.213-.625,1.107-3.128,1.376-4.816,1.523-.485.043-1.609-1.679-1.613-2.6-.025-5.729,4.556-10.518,11.721-11.14M364.911,86.6c8.379,1.673,9.7,7.608,3.551,14.9-5.292-4.009-6.265-7.826-3.551-14.9M29.04,29.935c-6.41-1.538-9.339-6.122-9.526-14.5,7.872,1.536,10.378,5.236,9.526,14.5M475.8,148.036c3.5-2.81,6.31-1.528,8.644,1.04a6.016,6.016,0,0,1,.388,8.3c-1.405,1.8-3.53,3.365-5.143.245-1.521-2.943-2.524-6.153-3.889-9.582M60.7,159.788c-5.032-2.849-6.234-5.994-3.913-9.744s5.552-4.406,9.675-2.076L60.7,159.788m112.216-59.265c-4.956-7.466-3.3-12.272,4.345-13.6,1.738,7.774,1.009,10.166-4.345,13.6M88.69,102.472q0-.814-.008-1.627c4.551-3.226,6.2-3.128,10.44,1.627Z" transform="translate(0 0)" fill="rgba(84,93,78,0.3)"/>
      </g>
    </g>
  </g>
</svg>
